<?xml version="1.0" standalone="no"?>
<!DOCTYPE svg PUBLIC "-//W3C//DTD SVG 20010904//EN"
 "http://www.w3.org/TR/2001/REC-SVG-20010904/DTD/svg10.dtd">
<svg version="1.0" xmlns="http://www.w3.org/2000/svg"
 width="901.000000pt" height="1280.000000pt" viewBox="0 0 901.000000 1280.000000"
 preserveAspectRatio="xMidYMid meet">
<metadata>
Created by potrace 1.15, written by Peter Selinger 2001-2017
</metadata>
<g transform="translate(0.000000,1280.000000) scale(0.100000,-0.100000)"
fill="#ff5722" stroke="none">
<path d="M3960 12771 c-117 -39 -193 -73 -430 -193 -264 -134 -418 -203 -780
-350 -162 -65 -360 -150 -440 -188 -80 -38 -246 -103 -370 -145 -524 -179
-737 -295 -806 -440 -13 -27 -24 -68 -24 -90 0 -53 -30 -101 -68 -110 -53 -11
-64 -34 -74 -158 -11 -125 -32 -201 -84 -295 -104 -186 -433 -626 -532 -711
-26 -23 -76 -63 -112 -89 -164 -122 -251 -302 -237 -489 8 -109 43 -174 169
-312 167 -183 217 -242 265 -314 49 -73 74 -91 142 -100 24 -3 69 -19 100 -35
198 -104 244 -125 344 -157 155 -48 177 -67 217 -193 37 -114 86 -201 170
-297 90 -102 92 -118 42 -272 -69 -214 -70 -248 -17 -333 14 -22 30 -59 37
-84 10 -38 9 -48 -5 -70 -16 -24 -21 -25 -99 -23 -76 1 -88 -1 -145 -31 -82
-42 -135 -95 -131 -130 5 -45 40 -40 124 17 92 62 126 70 187 43 77 -34 160
-167 230 -368 53 -151 73 -311 42 -321 -5 -1 -39 22 -75 52 -35 30 -72 55 -82
55 -23 0 -59 -50 -100 -135 -31 -65 -33 -77 -33 -175 0 -97 2 -110 32 -173 20
-41 53 -88 85 -121 65 -64 189 -129 251 -130 l42 -1 -1 63 c0 34 2 62 6 62 14
0 60 -99 60 -128 0 -39 34 -96 138 -237 143 -192 159 -240 197 -588 52 -464
90 -589 102 -331 10 210 -24 687 -62 867 -17 82 -19 84 -189 293 -129 158
-204 267 -245 359 -36 80 -61 175 -61 236 0 68 25 99 83 99 29 0 40 6 54 27
16 25 18 54 15 328 -4 331 5 443 44 539 29 71 30 115 5 147 -32 42 -50 85 -57
140 -9 74 -17 82 -75 74 -59 -8 -69 6 -69 97 0 77 8 108 27 108 7 0 116 -51
241 -114 326 -165 511 -235 671 -257 204 -28 292 -44 481 -89 344 -81 467 -98
790 -107 688 -17 1392 109 2043 367 260 102 368 131 379 100 5 -16 78 -39 124
-40 62 0 101 -18 122 -54 15 -26 28 -34 59 -39 96 -16 106 -106 22 -203 -60
-69 -63 -97 -39 -289 21 -160 22 -232 5 -401 -5 -49 0 -88 29 -210 71 -301 88
-596 37 -647 -5 -5 -45 -13 -88 -17 -84 -7 -112 -18 -156 -59 -53 -48 -254
-385 -301 -501 -24 -60 -31 -162 -17 -246 20 -123 135 -585 142 -572 8 16 50
241 80 428 25 161 62 277 135 426 56 116 195 335 234 369 l23 20 -7 -67 c-12
-118 -52 -254 -111 -372 -45 -89 -64 -146 -99 -286 -57 -226 -122 -548 -196
-976 -71 -406 -72 -410 -110 -515 -56 -155 -154 -313 -324 -525 -121 -151
-284 -334 -297 -334 -13 0 14 50 81 150 108 161 130 230 73 230 -39 0 -85 -53
-335 -388 -315 -423 -446 -571 -516 -585 -44 -9 -223 -25 -402 -37 -174 -11
-245 -29 -262 -66 -15 -32 -26 -30 -30 4 -5 42 -54 53 -268 61 -150 6 -192 11
-220 25 -90 48 -213 165 -645 621 -314 331 -427 471 -535 663 -55 98 -99 157
-100 133 0 -8 27 -74 60 -148 33 -73 60 -138 60 -143 0 -57 -154 117 -293 330
-138 213 -156 280 -317 1160 -123 668 -182 950 -199 950 -8 0 -7 -16 14 -200
13 -114 18 -199 16 -257 -2 -54 -62 -4 -81 67 -15 57 -75 148 -186 280 -167
200 -233 308 -269 445 -9 35 -22 159 -30 300 -13 223 -30 360 -55 445 -17 60
-13 99 16 125 l26 24 -25 6 c-14 4 -35 4 -46 0 -43 -13 -46 -34 -45 -340 0
-254 3 -306 22 -415 43 -242 113 -394 261 -567 130 -152 172 -216 184 -281 10
-50 60 -115 137 -179 124 -101 138 -137 175 -438 34 -267 50 -371 86 -554 67
-341 140 -564 213 -654 79 -98 85 -152 62 -517 -39 -597 -85 -780 -198 -780
-39 0 -142 -55 -320 -171 -239 -155 -315 -193 -401 -197 -66 -4 -69 -5 -92
-42 -32 -51 -89 -97 -190 -156 -290 -166 -425 -300 -491 -486 -18 -52 -54
-282 -61 -396 -8 -128 35 -217 79 -162 21 26 39 89 73 249 37 176 74 239 106
180 6 -12 15 -76 19 -143 5 -66 14 -137 21 -156 25 -72 62 -107 99 -95 33 11
44 66 59 310 10 150 15 175 38 175 30 0 45 -69 47 -215 1 -97 6 -148 15 -164
13 -24 14 -24 27 -6 12 16 18 71 17 158 0 9 4 17 9 17 4 0 8 -5 8 -12 0 -6 18
-48 39 -93 46 -95 75 -118 115 -91 74 48 119 232 156 633 20 223 40 347 58
365 14 14 81 27 88 17 14 -23 16 -247 4 -462 -14 -260 -11 -277 40 -277 41 0
50 -23 37 -92 -15 -85 19 -157 44 -91 15 41 29 294 29 563 1 420 15 481 128
558 75 49 104 53 129 15 16 -24 18 -52 18 -223 0 -107 -4 -312 -8 -455 -9
-267 -5 -303 27 -276 31 26 59 225 81 581 28 458 42 510 141 526 34 5 42 3 48
-12 29 -75 33 -969 5 -1114 -7 -36 -13 -85 -13 -110 l-1 -45 40 0 c38 0 40 2
53 45 10 33 16 157 23 480 8 399 22 691 35 712 10 15 42 8 72 -17 67 -56 80
-176 92 -850 9 -483 18 -637 40 -659 36 -36 42 54 49 736 4 489 9 660 18 669
30 30 125 -47 144 -115 11 -41 9 -371 -7 -856 -4 -107 -4 -221 0 -252 12 -92
56 -125 85 -62 19 43 30 197 41 569 9 329 22 524 36 546 9 14 46 10 92 -11 34
-15 47 -29 64 -67 18 -42 21 -66 20 -198 0 -82 -6 -267 -13 -410 -15 -329 -11
-481 14 -518 9 -15 21 -27 26 -27 31 0 58 172 86 545 38 513 41 545 59 545 7
0 33 -7 58 -16 85 -29 94 -74 113 -608 15 -413 25 -519 53 -576 22 -46 58 -53
69 -13 12 43 7 403 -12 747 -9 170 -15 310 -13 311 2 2 64 0 139 -2 l136 -6 6
-521 c4 -286 11 -558 16 -604 10 -86 35 -145 63 -150 41 -8 55 140 63 628 7
418 17 564 45 627 21 49 65 77 81 52 13 -21 14 -34 14 -719 0 -493 3 -645 13
-678 27 -90 56 -23 77 178 8 74 24 297 35 495 28 488 42 624 71 689 19 40 51
31 67 -19 19 -57 31 -337 32 -720 0 -449 13 -665 43 -725 30 -61 51 -63 65 -8
20 78 22 108 36 698 15 566 24 728 47 787 9 23 12 25 19 12 15 -26 28 -175 41
-439 12 -272 29 -431 50 -475 19 -40 46 -44 60 -8 13 33 28 331 29 568 0 189
14 344 33 384 18 39 45 39 61 -1 22 -51 34 -129 71 -449 35 -302 57 -435 80
-478 12 -23 13 -24 23 -5 25 47 51 380 52 664 1 175 14 327 34 374 17 40 71
65 104 47 46 -24 56 -116 77 -656 21 -558 45 -943 62 -1014 9 -38 42 -101 53
-101 32 0 35 43 41 635 3 325 9 601 14 615 19 61 45 65 79 12 31 -48 42 -130
61 -477 15 -283 25 -364 50 -402 19 -29 31 -29 50 0 23 36 34 137 50 477 17
342 28 467 43 482 12 12 58 -11 88 -44 43 -47 75 -207 89 -443 24 -407 74
-628 115 -512 9 27 29 334 30 475 0 47 14 56 25 15 3 -16 20 -61 37 -101 22
-52 38 -77 58 -87 42 -22 81 -7 105 40 18 36 20 58 18 235 -3 178 9 377 24
416 3 8 10 13 16 11 24 -8 39 -93 53 -302 8 -121 20 -247 27 -280 11 -54 15
-62 49 -78 52 -25 73 -12 95 61 14 47 17 120 22 422 l6 365 33 -3 c43 -3 88
-26 107 -55 23 -35 35 -146 35 -337 1 -238 15 -441 31 -476 21 -42 57 -39 80
6 43 82 63 203 88 521 9 117 23 162 51 157 31 -6 38 -86 39 -435 l1 -342 26
-20 c33 -26 74 -27 103 -3 29 22 47 132 60 356 14 237 35 246 66 26 8 -60 22
-161 31 -222 23 -166 42 -235 72 -258 32 -26 38 -25 66 5 35 38 45 90 61 316
14 210 28 279 59 279 33 0 66 -106 86 -275 20 -167 62 -285 100 -285 11 0 24
9 30 20 6 12 20 125 30 253 11 128 22 252 26 277 11 82 50 129 95 115 39 -13
48 -62 59 -297 9 -226 26 -334 65 -407 30 -59 76 -63 94 -8 17 53 31 231 31
396 0 203 13 319 39 344 21 22 66 26 84 8 9 -9 12 -109 12 -369 0 -326 2 -361
19 -399 20 -47 48 -57 65 -25 13 25 29 215 37 452 11 325 -19 541 -83 602 -20
19 -49 31 -99 42 -39 8 -118 33 -176 55 -143 56 -448 208 -533 266 -101 68
-170 101 -351 166 -228 82 -383 161 -476 245 -82 73 -199 134 -319 164 -46 12
-94 27 -109 35 l-25 13 -29 527 c-36 653 -34 697 39 940 58 195 143 595 246
1168 l43 237 105 0 c110 1 166 14 203 47 11 10 54 88 96 173 88 182 154 302
233 422 70 107 89 161 99 285 8 88 -1 533 -15 768 -14 229 -40 347 -87 392
-29 27 -32 28 -129 26 -124 -3 -124 -4 -111 140 10 103 3 199 -20 267 -6 19
-33 84 -61 143 -27 60 -51 126 -54 148 -9 65 34 138 151 254 148 146 298 248
486 328 43 19 137 94 296 237 372 334 644 721 644 915 0 63 -20 94 -141 212
-117 115 -202 180 -285 219 -60 29 -90 53 -180 147 -212 219 -445 515 -573
729 -170 282 -409 574 -644 788 -116 105 -189 150 -283 175 -81 21 -370 55
-474 55 -145 0 -520 88 -925 215 -252 79 -376 130 -442 180 -104 77 -306 164
-475 205 -108 26 -136 25 -238 -9z m62 -88 c25 -28 27 -46 38 -293 5 -129 17
-305 26 -390 8 -85 13 -174 9 -197 -7 -47 -42 -83 -80 -83 -43 0 -47 32 -56
410 -7 315 -17 466 -35 523 -3 10 0 24 6 32 17 21 74 19 92 -2z m262 -21 c62
-43 69 -74 68 -309 -1 -194 -20 -417 -42 -494 -12 -43 -47 -80 -59 -61 -17 27
-68 852 -55 887 8 20 35 13 88 -23z m-492 -109 c16 -41 23 -451 9 -583 -17
-161 -36 -198 -63 -122 -28 80 -14 672 18 724 10 16 25 8 36 -19z m790 -111
c24 -69 40 -322 36 -560 l-3 -194 -47 36 c-70 53 -79 93 -85 341 -5 212 11
363 43 413 22 33 36 23 56 -36z m-1038 -54 c24 -109 35 -220 47 -457 11 -217
6 -312 -12 -262 -28 72 -92 650 -82 731 11 85 27 81 47 -12z m-203 -48 c29
-39 42 -132 36 -260 -7 -130 -19 -185 -46 -200 -22 -12 -47 -69 -56 -133 -7
-47 -25 -75 -25 -40 0 10 -5 90 -10 178 -11 172 -31 298 -55 345 -21 40 -19
63 8 88 28 26 86 52 111 49 10 -1 27 -13 37 -27z m1567 -10 c9 -18 12 -64 10
-157 -3 -156 -11 -170 -94 -179 -41 -5 -52 -3 -68 15 -17 19 -18 32 -13 123 3
57 12 120 18 141 26 80 116 115 147 57z m-1827 -120 c11 -40 10 -259 -2 -330
-13 -82 -29 -115 -54 -115 -25 0 -52 79 -85 241 -21 108 -21 113 -5 148 35 74
131 111 146 56z m2050 -132 c14 -142 18 -611 6 -708 -8 -65 -21 -100 -32 -88
-27 26 -45 572 -26 801 16 208 31 207 52 -5z m296 40 c26 -65 47 -221 40 -299
-6 -72 -27 -110 -71 -134 -47 -26 -69 -13 -78 46 -10 68 -9 317 2 384 17 105
65 107 107 3z m292 17 c10 -20 17 -82 20 -190 7 -179 0 -530 -11 -540 -13 -13
-48 16 -69 56 -33 66 -49 163 -56 339 -7 185 7 322 34 352 25 28 65 20 82 -17z
m239 -67 c13 -25 33 -90 45 -145 20 -90 22 -125 21 -418 0 -176 -4 -337 -8
-359 l-7 -38 -26 23 c-39 37 -51 68 -67 180 -31 214 -47 632 -30 763 6 40 10
47 28 44 14 -2 29 -19 44 -50z m-3186 -19 c36 -42 36 -225 1 -297 -18 -38 -59
-57 -67 -30 -14 49 -46 302 -41 319 13 41 74 46 107 8z m3463 -3 c42 -64 62
-261 72 -692 4 -197 3 -283 -5 -288 -16 -10 -102 108 -119 162 -54 178 -70
743 -24 831 13 24 57 16 76 -13z m255 -16 c47 -176 31 -920 -20 -920 -40 0
-63 449 -40 760 14 189 36 248 60 160z m-3978 -77 c30 -35 41 -93 35 -192 -8
-145 -59 -280 -96 -257 -19 12 -31 81 -36 211 -3 72 -8 149 -10 172 -4 34 0
47 17 63 27 25 70 26 90 3z m4226 -80 c57 -82 114 -295 139 -518 17 -158 21
-679 5 -854 l-7 -84 -68 96 c-85 120 -113 182 -126 278 -16 117 -24 651 -13
870 12 234 25 275 70 212z m-4490 -66 c34 -90 46 -168 46 -297 1 -109 -2 -130
-20 -160 -50 -86 -70 -40 -85 195 -5 88 -13 183 -18 211 -11 71 10 121 45 107
7 -3 22 -28 32 -56z m2609 -18 c6 -19 16 -103 22 -188 9 -142 13 -158 43 -219
l33 -67 3 -220 c2 -121 1 -218 -1 -215 -3 3 -10 70 -16 150 -18 220 -37 300
-57 238 -22 -70 -18 -709 6 -862 14 -90 22 -100 77 -92 51 7 50 11 21 -106
-19 -78 -24 -89 -46 -95 -14 -3 -104 -2 -201 3 -320 16 -353 10 -468 -77 -51
-38 -92 -59 -116 -59 -7 0 -46 20 -88 45 -112 67 -167 73 -416 51 -109 -11
-225 -21 -257 -24 l-59 -5 6 189 c4 104 12 387 17 629 24 943 21 914 75 885
46 -25 74 -105 90 -258 14 -145 23 -178 56 -221 19 -24 20 -34 14 -117 -6 -76
-4 -92 10 -104 41 -34 256 57 338 143 46 49 49 50 133 62 92 14 124 32 124 72
0 84 -169 95 -277 18 -89 -64 -127 -77 -209 -73 -60 3 -77 7 -98 27 -35 33
-33 65 12 140 45 77 187 231 212 231 14 0 25 -16 41 -60 25 -68 58 -110 88
-110 11 0 37 16 56 36 l36 36 113 -7 c127 -8 111 -15 169 75 39 60 85 55 199
-19 161 -105 188 -149 127 -210 -48 -48 -90 -56 -237 -44 -152 13 -172 8 -172
-43 0 -41 45 -94 80 -94 29 0 70 -23 100 -55 35 -39 130 -102 206 -137 52 -24
67 -28 79 -18 20 17 19 43 -5 89 -24 47 -60 77 -111 93 -21 6 -45 19 -54 28
-13 14 -13 19 1 38 8 12 42 36 73 52 67 34 106 75 120 128 5 20 15 87 21 147
22 217 55 289 87 194z m-2884 -47 c34 -37 49 -138 51 -327 1 -210 -8 -306 -33
-337 -17 -21 -20 -21 -43 -6 -48 31 -70 175 -72 454 -1 175 1 194 18 213 23
26 57 27 79 3z m-259 -114 c47 -78 88 -570 50 -608 -17 -17 -32 9 -53 91 -46
180 -71 488 -42 522 18 23 28 21 45 -5z m-204 -141 c26 -123 32 -218 27 -432
-6 -269 -35 -443 -72 -439 -46 4 -70 218 -61 544 6 229 16 328 42 388 l15 37
19 -23 c10 -12 23 -46 30 -75z m5573 -25 c9 -10 24 -49 34 -87 24 -98 24 -474
0 -710 -21 -204 -45 -357 -56 -368 -19 -19 -36 1063 -18 1146 9 41 16 45 40
19z m-5839 -118 c4 -14 7 -117 7 -229 0 -238 -10 -283 -56 -265 -38 15 -41 13
-18 -12 50 -56 74 -157 74 -319 0 -171 -28 -249 -87 -249 -44 0 -49 28 -47
270 4 385 31 708 67 795 18 43 51 48 60 9z m4134 -51 c27 -70 45 -176 62 -370
15 -164 14 -423 -1 -455 -25 -55 -89 -38 -109 29 -26 86 -22 770 5 812 11 20
32 12 43 -16z m1969 -262 c21 -95 33 -320 34 -624 1 -164 -1 -301 -4 -304 -14
-14 -40 11 -63 61 -72 158 -92 570 -39 806 31 133 52 151 72 61z m-4497 -207
c6 -104 11 -281 12 -394 3 -181 1 -209 -15 -237 -22 -41 -57 -44 -81 -8 -39
59 -51 142 -51 350 1 173 4 212 23 287 25 102 78 216 93 201 6 -6 14 -95 19
-199z m3666 151 c15 -61 -19 -155 -56 -155 -45 0 -43 54 5 136 30 50 42 55 51
19z m-3434 -117 c6 -46 12 -182 12 -303 1 -206 0 -223 -21 -267 -12 -27 -27
-48 -33 -48 -28 0 -35 58 -35 310 0 247 7 321 37 400 8 22 11 23 19 8 5 -9 15
-54 21 -100z m2600 45 c47 -52 70 -200 57 -377 -11 -143 -54 -211 -102 -159
-23 26 -40 222 -35 399 5 177 20 203 80 137z m-3907 -107 c15 -22 15 -27 1
-55 -9 -17 -25 -35 -35 -41 -42 -22 -68 51 -35 98 20 29 50 28 69 -2z m762 -3
c14 -21 18 -48 18 -128 0 -119 -6 -141 -35 -125 -36 20 -54 69 -54 152 0 54 5
83 17 102 22 33 32 33 54 -1z m-1560 -120 c13 -45 5 -267 -17 -495 -20 -210
-32 -282 -49 -293 -21 -12 -44 115 -56 305 -11 167 19 400 61 482 19 37 51 37
61 1z m6632 -62 c14 -88 14 -241 0 -371 -13 -117 -21 -152 -36 -157 -45 -15
-57 516 -13 597 18 34 36 9 49 -69z m-1669 27 c32 -52 22 -138 -16 -138 -27 0
-44 87 -28 148 9 30 21 28 44 -10z m1849 -106 c16 -31 31 -179 31 -314 0 -228
-28 -342 -93 -378 -24 -13 -29 -13 -37 0 -26 40 -1 449 35 595 28 111 44 135
64 97z m-1563 -91 c49 -22 60 -37 38 -49 -23 -13 -60 -3 -89 24 -49 45 -22 58
51 25z m1898 -268 c5 -22 0 -48 -19 -93 -14 -33 -32 -100 -39 -148 -18 -113
-22 -124 -54 -120 -63 7 -91 135 -91 408 l-1 185 99 -101 c66 -66 101 -110
105 -131z m-5546 137 c49 -98 6 -270 -61 -244 -39 14 -62 164 -36 231 14 38
40 64 58 61 9 -2 26 -23 39 -48z m-234 -113 c37 -76 16 -308 -26 -295 -21 6
-67 109 -76 168 -10 68 -1 123 23 150 27 30 57 21 79 -23z m-1642 11 c20 -35
16 -571 -5 -701 -15 -101 -39 -149 -61 -127 -7 7 -14 117 -20 288 -13 394 4
562 59 562 8 0 20 -10 27 -22z m1376 -169 c30 -60 45 -152 32 -199 -21 -78
-81 -103 -110 -45 -20 40 -21 217 -1 263 20 47 50 40 79 -19z m6242 16 c30
-32 38 -99 16 -124 -23 -25 -58 -33 -90 -21 -31 12 -32 23 -5 110 22 75 36 81
79 35z m-5124 -16 c67 -41 41 -62 -174 -139 -81 -29 -237 -87 -347 -130 -220
-85 -259 -98 -253 -79 5 14 83 56 308 163 85 41 184 94 220 117 81 53 158 89
189 89 13 0 39 -9 57 -21z m-422 -43 c-13 -34 -94 -60 -110 -35 -9 15 14 36
61 53 43 15 59 9 49 -18z m-2324 -6 c34 -21 17 -314 -29 -490 -30 -112 -51
-119 -72 -22 -15 64 -19 375 -6 434 6 28 18 45 45 63 41 28 41 28 62 15z
m1362 -80 c21 -41 25 -185 7 -256 -11 -43 -47 -84 -74 -84 -28 0 -47 233 -23
301 29 85 61 99 90 39z m3208 29 c84 -13 107 -33 91 -80 -14 -41 -34 -65 -84
-103 -21 -15 -35 -32 -30 -36 4 -5 47 -10 95 -12 47 -1 90 -7 95 -11 17 -18
-37 -44 -104 -51 -67 -6 -133 -2 -423 29 -253 26 -651 18 -975 -20 -210 -25
-354 -52 -637 -121 -146 -35 -273 -64 -282 -64 -50 0 24 47 157 99 89 36 348
103 482 125 152 25 274 35 690 56 542 27 609 31 593 41 -7 5 -44 9 -83 9 -145
1 -287 31 -293 61 -3 15 38 38 97 55 100 28 491 43 611 23z m-959 -25 c19 -11
35 -30 37 -41 5 -36 -12 -39 -438 -73 -318 -26 -665 -106 -902 -209 -135 -58
-177 -71 -242 -71 -42 0 -47 2 -36 15 23 28 159 107 258 149 246 107 629 208
932 245 41 5 138 9 216 7 120 -2 146 -5 175 -22z m1298 -34 c21 -11 -81 -23
-130 -15 -74 13 -9 35 76 27 22 -3 46 -8 54 -12z m-3786 -85 c24 -69 18 -274
-10 -357 -22 -63 -61 -119 -100 -145 -24 -16 -26 -16 -39 1 -19 27 -28 136
-21 276 10 198 47 285 120 278 29 -3 34 -8 50 -53z m-1367 -20 c14 -57 -58
-345 -86 -345 -18 0 -34 79 -35 165 0 110 6 132 46 173 38 39 66 42 75 7z
m6179 -55 c66 -39 122 -87 112 -96 -11 -11 -147 23 -185 46 -21 13 -32 27 -32
43 0 47 34 49 105 7z m-1676 -111 c59 -12 82 -33 54 -47 -37 -19 -201 -38
-533 -62 -693 -50 -1187 -133 -1559 -261 -80 -27 -169 -52 -198 -56 -48 -5
-53 -4 -53 14 0 51 311 162 776 277 388 95 963 161 1321 150 78 -2 165 -9 192
-15z m2060 -130 c34 -34 42 -62 14 -52 -29 10 -87 49 -102 67 -12 14 -10 16
22 16 26 0 43 -8 66 -31z m981 -99 c-29 -55 -56 -100 -61 -100 -17 0 -9 55 12
90 36 60 94 131 97 121 2 -6 -20 -55 -48 -111z m-3000 -4 c0 -2 -40 -38 -89
-80 -95 -81 -134 -132 -129 -167 6 -45 46 -59 259 -95 299 -50 590 -112 607
-128 16 -17 -29 -16 -255 8 -136 14 -360 35 -498 46 -335 27 -435 41 -435 59
0 3 21 17 47 31 65 35 86 74 85 162 0 96 -9 104 -112 101 -97 -3 -151 -16
-176 -44 -16 -18 -19 -40 -22 -165 -2 -79 -7 -144 -10 -144 -4 0 -234 -25
-512 -54 -278 -30 -506 -53 -508 -51 -1 1 15 36 37 76 52 97 73 164 74 240 2
59 4 64 32 80 87 50 323 71 1280 113 160 8 298 14 308 15 9 0 17 -1 17 -3z
m-3839 -75 c56 -52 62 -60 45 -67 -16 -6 -29 3 -64 42 -88 99 -77 114 19 25z
m4158 -1 c20 -11 -90 -23 -134 -14 -69 13 1 35 80 26 22 -3 46 -8 54 -12z
m345 -41 c37 -17 22 -29 -34 -29 -50 0 -74 15 -49 31 19 12 53 11 83 -2z m243
-50 c22 -8 24 -12 13 -19 -20 -13 -81 -12 -100 0 -13 9 -13 11 0 20 20 13 52
13 87 -1z m322 -106 c20 -17 20 -23 12 -154 -8 -128 -19 -174 -45 -191 -37
-25 -166 14 -166 50 0 10 16 37 36 61 41 47 74 125 74 174 0 39 24 77 49 77
11 0 28 -8 40 -17z m-3448 -39 c9 -12 10 -31 3 -83 -12 -90 -4 -135 34 -174
38 -39 48 -75 29 -101 -14 -19 -16 -19 -40 -3 -35 23 -43 40 -88 189 -41 136
-47 173 -26 181 26 11 75 6 88 -9z m3666 -14 c68 -30 73 -54 33 -158 -18 -48
-35 -92 -37 -98 -7 -18 33 -50 77 -63 46 -13 53 -37 14 -47 -64 -16 -191 23
-214 65 -14 28 -13 96 5 188 27 141 38 152 122 113z m-3938 -107 c50 -60 143
-253 145 -299 1 -39 1 -39 -40 -42 -36 -3 -45 1 -68 28 -14 17 -33 57 -42 88
-8 31 -26 91 -40 132 -13 41 -24 87 -24 103 0 40 32 35 69 -10z m5047 18 c32
-19 64 -74 64 -109 0 -47 -77 -102 -142 -102 -59 0 -78 30 -78 118 0 80 24
112 83 112 23 0 56 -8 73 -19z m-714 -62 c89 -31 169 -72 198 -104 24 -26 25
-27 6 -41 -11 -8 -27 -14 -37 -14 -34 0 -42 -26 -35 -110 9 -105 -1 -124 -58
-118 -59 7 -162 56 -191 90 -20 23 -25 41 -25 83 0 58 24 184 40 216 13 24 26
24 102 -2z m-2486 -31 c31 -11 39 -18 39 -38 0 -16 -8 -29 -24 -36 -13 -7 -28
-18 -32 -26 -19 -28 -39 -121 -64 -293 -54 -373 -96 -474 -212 -505 -78 -21
-88 -35 -50 -70 50 -48 122 -70 323 -100 150 -23 218 -41 246 -67 75 -68 661
26 1353 217 247 68 464 145 711 251 129 55 239 99 246 96 18 -6 -128 -98 -250
-158 -139 -68 -386 -163 -627 -242 -474 -156 -704 -207 -1130 -251 -322 -34
-455 -41 -795 -41 -332 0 -363 2 -470 23 -397 80 -1015 268 -1380 420 -162 68
-190 81 -246 118 -42 28 -54 42 -52 58 6 43 56 33 194 -41 265 -139 383 -190
649 -278 376 -124 789 -208 1087 -222 137 -6 148 -5 154 12 6 14 -8 33 -57 79
-113 107 -255 166 -513 212 -198 35 -346 69 -526 121 -256 74 -318 85 -485 88
-158 3 -232 17 -323 64 -114 58 -48 93 243 131 88 11 228 30 310 41 146 19
208 18 250 -4 11 -5 49 -36 83 -68 92 -84 126 -93 321 -86 227 9 263 22 282
109 6 24 21 54 34 68 29 31 55 90 55 127 0 36 25 71 59 84 14 6 88 21 165 34
79 13 144 29 153 37 12 13 9 18 -21 42 -91 69 -9 120 175 111 47 -3 104 -10
125 -17z m811 -12 c170 -29 185 -49 43 -60 -119 -10 -147 -19 -184 -59 -23
-25 -44 -37 -76 -42 -63 -11 -85 -29 -117 -93 -35 -72 -39 -162 -8 -207 18
-27 20 -47 20 -170 0 -223 -15 -247 -160 -253 -124 -6 -181 4 -211 33 -38 38
-26 113 30 193 42 62 60 157 59 332 0 188 -10 224 -71 258 -66 37 -50 65 47
82 76 14 523 4 628 -14z m-3017 -61 c49 -25 140 -198 140 -265 0 -31 -22 -50
-59 -50 -26 0 -46 37 -61 118 -19 92 -35 108 -119 116 -39 4 -73 12 -77 17
-10 17 27 49 75 64 60 18 67 18 101 0z m5165 -175 c4 -11 -6 -61 -20 -111 -21
-71 -24 -93 -15 -104 10 -12 6 -23 -17 -55 -123 -166 -245 -76 -151 111 41 81
134 179 170 179 18 0 29 -7 33 -20z m-5573 -127 c82 -75 122 -217 83 -293 -52
-101 -216 69 -219 226 0 43 4 58 24 79 33 35 63 31 112 -12z m4332 -175 c19
-31 48 -165 41 -189 -10 -32 -56 -56 -170 -89 -177 -52 -305 -76 -374 -71 -24
2 17 39 58 52 74 24 118 75 136 157 14 67 70 111 180 143 84 24 112 24 129 -3z
m-4150 -343 c-32 -69 -62 -125 -66 -125 -17 0 -8 105 13 146 20 43 96 121 106
110 3 -3 -21 -62 -53 -131z m-104 -285 c0 -31 -38 -100 -55 -100 -25 0 -19 63
10 94 29 31 45 33 45 6z m5830 -361 c33 -23 62 -50 65 -60 10 -30 -21 -74
-138 -197 -173 -181 -260 -298 -342 -462 -128 -257 -144 -244 -106 90 11 91
22 212 26 270 3 58 9 115 12 128 5 23 23 31 23 10 0 -20 32 -48 55 -48 32 0
77 49 162 177 41 62 84 120 96 128 32 24 78 13 147 -36z m20 -355 c22 -56 44
-304 44 -499 l1 -200 -46 -95 c-89 -183 -275 -436 -380 -517 -58 -45 -163
-103 -184 -103 -8 0 -21 10 -29 22 -21 29 -21 177 -2 269 25 116 62 169 154
219 80 43 95 90 127 399 8 80 19 149 25 155 15 15 45 -18 76 -87 22 -49 28
-77 28 -132 0 -75 -13 -109 -119 -305 -34 -63 -45 -110 -26 -110 11 0 67 45
98 80 35 38 137 189 163 239 37 74 36 128 -4 300 -51 217 -48 280 18 359 33
39 43 40 56 6z m-4912 -4130 c28 -38 49 -130 63 -280 14 -147 8 -194 -25 -194
-31 0 -82 57 -95 107 -25 90 -33 173 -29 307 2 78 8 147 12 155 6 9 15 2 31
-26 12 -22 32 -53 43 -69z m309 -36 c46 -49 52 -68 65 -181 9 -77 9 -139 1
-239 -12 -142 -22 -178 -51 -178 -31 0 -78 37 -96 75 -37 77 -41 451 -5 528
17 37 48 35 86 -5z m271 -240 c118 -146 146 -225 140 -398 -2 -94 -6 -114 -21
-125 -24 -18 -88 3 -140 46 -59 48 -67 93 -67 358 0 127 4 221 9 216 4 -6 40
-49 79 -97z m2778 -50 c22 -43 54 -201 54 -271 0 -79 -27 -127 -71 -127 -18 0
-40 63 -49 138 -14 125 11 315 40 297 6 -3 17 -20 26 -37z m288 9 c18 -24 21
-42 21 -120 -1 -67 -6 -101 -18 -124 -22 -41 -51 -43 -71 -5 -20 38 -46 154
-46 203 0 76 70 105 114 46z m452 -217 c40 -15 53 -39 54 -92 0 -60 -24 -88
-75 -88 -37 0 -101 28 -129 55 -39 40 -3 109 66 125 47 11 53 11 84 0z m-3142
-70 c72 -86 77 -310 7 -310 -37 0 -69 38 -82 98 -20 96 2 242 37 242 7 0 24
-14 38 -30z m272 -98 c56 -41 120 -116 149 -177 21 -42 25 -64 23 -111 -4 -70
-5 -71 -126 -24 -130 50 -171 111 -158 234 7 67 27 106 55 106 10 0 36 -13 57
-28z m734 -41 c13 -26 13 -136 -1 -200 -21 -98 -77 -132 -105 -64 -23 55 -16
233 10 262 25 28 81 29 96 2z m-315 -14 c32 -49 48 -316 22 -367 -19 -37 -74
-39 -115 -5 -41 35 -56 90 -49 185 7 95 21 142 53 180 31 36 67 39 89 7z
m1760 -121 c18 -8 39 -24 45 -37 17 -31 -12 -53 -59 -44 -67 13 -108 58 -75
82 23 17 47 16 89 -1z m-1197 -18 c25 -25 10 -99 -23 -112 -52 -20 -75 55 -30
99 27 28 36 30 53 13z m885 -120 c38 -59 52 -105 37 -123 -30 -36 -71 -5 -84
64 -7 37 2 101 13 101 4 0 19 -19 34 -42z m937 -195 c40 -51 5 -99 -39 -52
-22 24 -36 72 -26 89 9 14 38 -3 65 -37z m1343 6 c39 -20 47 -36 22 -45 -24
-10 -65 5 -91 31 -47 48 -12 54 69 14z m306 -138 c43 -22 101 -74 101 -90 0
-30 -123 19 -158 64 -37 46 -9 59 57 26z"/>
<path d="M3445 10995 c-9 -133 1 -551 16 -661 33 -244 73 34 50 351 -12 163
-38 364 -51 400 -5 12 -10 -22 -15 -90z"/>
<path d="M3875 11011 c-63 -8 -105 -25 -105 -42 0 -6 12 -30 26 -54 38 -65 51
-206 36 -382 -6 -73 -16 -142 -21 -151 -8 -14 -12 -11 -26 21 -26 63 -54 213
-64 348 -9 125 -24 183 -53 207 -25 20 -39 -8 -50 -100 -11 -94 -4 -310 13
-390 23 -106 80 -178 143 -178 55 0 132 -29 176 -65 23 -19 60 -40 83 -46 55
-15 171 -6 281 22 103 26 132 45 123 80 -9 34 -38 48 -127 59 -119 14 -133 43
-150 319 -14 224 -5 259 66 248 74 -12 84 -36 94 -237 8 -169 20 -230 51 -261
24 -24 39 -21 57 12 10 18 12 64 7 194 -3 94 -1 199 4 235 9 55 15 69 42 91
31 25 31 27 13 37 -45 23 -142 34 -344 37 -118 2 -242 0 -275 -4z m160 -171
c19 -79 41 -418 31 -480 -10 -68 -19 -77 -51 -56 -39 26 -47 57 -52 221 -8
213 17 419 47 389 5 -5 16 -38 25 -74z"/>
<path d="M4676 10898 c-20 -47 -34 -129 -41 -236 -9 -121 -17 -149 -60 -187
-66 -61 -33 -135 61 -135 47 0 70 16 81 58 10 35 10 469 0 505 -10 36 -25 34
-41 -5z"/>
<path d="M6482 7614 c-12 -8 -36 -42 -53 -75 -16 -33 -54 -86 -83 -118 -31
-33 -57 -72 -61 -91 -8 -36 0 -123 21 -244 7 -44 12 -82 9 -84 -3 -3 -36 25
-74 62 -74 71 -155 116 -174 97 -20 -20 -27 -11 -27 34 0 52 -18 68 -100 90
-60 16 -100 40 -100 60 0 59 -335 9 -640 -96 -258 -89 -329 -110 -388 -113
-68 -5 -92 -22 -128 -90 -34 -66 -28 -84 32 -103 57 -17 120 -15 226 6 244 51
621 71 958 52 372 -21 515 -25 536 -13 17 9 19 23 19 109 1 92 4 108 54 251
32 95 53 172 53 202 2 74 -30 99 -80 64z"/>
<path d="M4282 7399 c-1 -4 -18 -58 -37 -120 -19 -63 -35 -132 -35 -154 0 -35
6 -45 58 -95 32 -30 86 -70 119 -88 102 -54 109 -41 27 50 -90 100 -113 158
-124 308 -4 58 -8 102 -8 99z"/>
<path d="M2673 7327 c-179 -38 -324 -169 -437 -395 -41 -81 -43 -115 -9 -120
40 -6 80 25 109 84 39 79 55 87 167 83 217 -9 318 -3 417 24 132 36 135 36
276 47 168 13 340 -1 437 -35 155 -56 247 -67 247 -30 0 29 -186 144 -284 175
-34 11 -41 10 -68 -10 -36 -26 -55 -23 -135 24 -66 39 -139 62 -233 71 -70 8
-122 25 -146 49 -8 9 -31 20 -52 26 -59 17 -220 21 -289 7z m-83 -145 c0 -23
-104 -81 -119 -67 -11 12 68 75 94 75 14 0 25 -4 25 -8z"/>
<path d="M3185 6930 c-192 -27 -342 -97 -513 -240 -34 -28 -60 -56 -56 -61 8
-14 107 -10 155 6 23 9 71 38 107 65 89 69 162 78 162 19 0 -36 47 -54 140
-53 119 2 191 30 222 86 13 23 28 43 34 45 6 2 40 -19 75 -48 90 -71 142 -96
170 -79 18 12 1 46 -65 128 -29 37 -58 77 -65 89 -7 13 -27 26 -49 32 -54 14
-247 21 -317 11z"/>
<path d="M1327 6875 c63 -80 151 -167 162 -161 18 11 -1 36 -81 106 -107 93
-115 99 -81 55z"/>
<path d="M5015 6901 c-32 -7 -35 -18 -20 -92 7 -36 7 -37 -48 -62 -66 -30
-157 -96 -157 -114 0 -19 116 -17 177 3 28 9 77 36 109 60 32 24 65 44 72 44
8 0 41 -25 73 -55 104 -95 162 -89 323 35 53 41 88 39 212 -15 134 -59 192
-72 233 -55 33 13 57 66 39 85 -5 6 -50 10 -101 10 -84 0 -98 3 -152 31 -104
55 -268 93 -485 113 -170 16 -243 19 -275 12z"/>
<path d="M4591 6703 c-77 -182 -81 -216 -47 -420 23 -141 27 -197 27 -348 -1
-148 3 -195 19 -265 25 -102 82 -224 115 -246 36 -24 58 -11 52 29 -4 30 -1
28 68 -45 102 -110 125 -160 125 -271 0 -101 7 -121 51 -136 71 -25 150 -7
181 41 56 87 13 177 -186 388 -120 128 -173 199 -196 260 -7 20 -16 119 -20
225 -5 105 -12 205 -16 224 l-7 33 25 -16 c27 -18 80 -23 116 -12 38 12 27 51
-44 159 -92 138 -137 240 -174 392 -17 71 -32 131 -33 132 -1 1 -26 -55 -56
-124z m89 -1008 c0 -25 -22 -75 -31 -69 -11 6 -12 97 -2 108 8 8 33 -22 33
-39z"/>
<path d="M3854 6766 c-41 -41 -42 -52 -8 -101 49 -72 48 -79 -1 -135 -55 -62
-75 -100 -75 -140 0 -60 59 -52 130 19 85 85 112 168 90 274 -13 63 -51 117
-82 117 -11 0 -35 -15 -54 -34z"/>
<path d="M2435 6723 c3 -16 17 -45 31 -65 19 -30 31 -38 54 -38 16 0 32 5 36
11 6 11 -101 119 -119 119 -5 0 -6 -12 -2 -27z"/>
<path d="M2821 6544 c-20 -14 -23 -23 -18 -60 7 -69 16 -74 126 -73 124 1 226
19 226 39 0 8 -37 33 -88 58 -70 36 -100 46 -155 49 -52 4 -72 1 -91 -13z"/>
<path d="M5673 6540 c-74 -17 -128 -80 -119 -138 7 -47 23 -62 63 -62 59 0
121 46 157 117 40 80 6 109 -101 83z"/>
<path d="M3730 5485 c-27 -33 24 -160 87 -216 41 -35 51 -36 62 -5 19 49 -29
171 -85 215 -32 25 -47 26 -64 6z"/>
<path d="M3420 5339 c-59 -27 -200 -171 -273 -280 -134 -201 -208 -381 -232
-562 -18 -138 -37 -229 -70 -331 -39 -124 -47 -157 -41 -182 15 -59 89 3 120
101 9 30 21 57 27 60 5 4 23 -23 40 -60 32 -71 49 -76 49 -16 0 81 72 109 101
40 19 -47 76 -68 217 -80 133 -10 188 -20 285 -48 37 -11 67 -16 67 -11 0 4
-16 28 -36 52 -109 129 -71 210 109 232 62 7 140 41 135 58 -7 21 -86 30 -207
24 -123 -7 -182 -19 -219 -47 -51 -39 -216 -50 -294 -20 -26 10 -28 15 -28 63
0 111 106 624 139 677 12 18 70 -15 161 -93 35 -30 66 -53 68 -52 1 2 -9 25
-23 52 -24 45 -26 57 -22 134 3 62 13 111 38 183 33 97 34 99 15 113 -27 20
-73 17 -126 -7z"/>
<path d="M4633 5278 c-6 -7 -38 -67 -71 -133 -87 -169 -124 -215 -192 -239
-48 -16 -64 -17 -131 -7 -103 16 -164 41 -282 116 -57 37 -112 65 -126 65 -45
0 -132 -67 -147 -112 -20 -63 30 -102 164 -129 100 -20 177 -52 272 -113 78
-50 187 -76 320 -76 158 0 200 18 206 89 4 53 26 93 81 152 47 51 89 67 123
49 16 -9 21 -8 26 4 9 24 -23 72 -92 138 -61 58 -114 138 -114 171 0 23 -25
40 -37 25z"/>
<path d="M5567 4733 c-19 -18 -1 -127 62 -374 38 -149 74 -276 79 -281 12 -12
42 30 66 90 41 106 27 232 -40 365 -43 86 -117 192 -139 201 -20 7 -20 7 -28
-1z"/>
<path d="M4540 4319 c-41 -5 -115 -19 -165 -32 l-90 -24 175 -7 c268 -11 358
-37 429 -123 36 -43 31 -53 -35 -71 -44 -13 -80 -44 -69 -61 8 -14 99 -14 162
-1 26 5 100 14 165 19 102 8 123 13 177 41 73 39 134 102 129 133 -4 25 -36
36 -208 72 -221 45 -531 70 -670 54z"/>
<path d="M3990 3941 l-45 -7 44 -13 c134 -39 681 -23 681 20 0 10 -607 10
-680 0z"/>
<path d="M4791 3599 c-30 -5 -96 -21 -147 -34 -154 -43 -251 -56 -439 -62
-193 -6 -302 4 -439 38 -43 11 -80 18 -83 16 -2 -3 16 -21 41 -41 51 -42 82
-106 66 -136 -15 -28 -12 -107 5 -140 19 -37 41 -38 120 -5 63 26 114 30 180
15 58 -13 287 -28 541 -35 l221 -7 -14 94 c-18 133 -11 173 43 225 24 24 44
47 44 53 0 12 -44 31 -68 29 -9 -1 -41 -5 -71 -10z"/>
<path d="M4274 2783 c-26 -27 5 -136 43 -150 18 -7 73 47 73 72 0 20 -56 82
-80 88 -11 3 -27 -2 -36 -10z"/>
<path d="M8932 1188 c-39 -105 -56 -289 -56 -608 0 -300 9 -412 41 -492 27
-67 56 -46 73 52 16 94 24 706 12 890 -15 215 -33 257 -70 158z"/>
<path d="M276 1018 c-46 -66 12 -388 69 -388 48 0 50 340 3 398 -16 19 -55 14
-72 -10z"/>
</g>
</svg>
