<?xml version="1.0" standalone="no"?>
<!DOCTYPE svg PUBLIC "-//W3C//DTD SVG 20010904//EN"
 "http://www.w3.org/TR/2001/REC-SVG-20010904/DTD/svg10.dtd">
<svg version="1.0" xmlns="http://www.w3.org/2000/svg"
 width="748.000000pt" height="1280.000000pt" viewBox="0 0 748.000000 1280.000000"
 preserveAspectRatio="xMidYMid meet">
<metadata>
Created by potrace 1.15, written by Peter Selinger 2001-2017
</metadata>
<g transform="translate(0.000000,1280.000000) scale(0.100000,-0.100000)"
fill="#ff5722" stroke="none">
<path d="M4477 12793 c-24 -24 13 -81 64 -99 l34 -11 -49 -8 c-48 -8 -260 -1
-321 10 -18 3 -2 -8 41 -29 74 -35 99 -56 67 -56 -42 1 -114 24 -198 65 -58
28 -141 56 -234 79 -79 20 -147 36 -152 36 -5 0 -9 -9 -9 -20 0 -12 -13 -25
-35 -36 -20 -9 -37 -20 -40 -24 -2 -4 42 -10 98 -13 108 -6 174 -23 191 -50
17 -26 1 -30 -69 -17 -75 14 -179 9 -215 -10 -23 -12 -23 -13 -4 -27 12 -9 32
-12 54 -9 19 3 71 8 115 12 79 6 81 6 129 -27 65 -44 72 -63 20 -53 -22 4 -67
18 -102 31 -67 27 -92 25 -92 -7 0 -24 -16 -25 -124 -9 -64 10 -82 9 -123 -5
-69 -24 -220 -35 -628 -45 -354 -9 -361 -9 -425 -35 -36 -14 -84 -30 -107 -36
-23 -6 -49 -18 -58 -26 -15 -15 -17 -15 -34 0 -24 21 -30 20 -24 -4 7 -27 -18
-53 -73 -80 -53 -24 -64 -20 -64 23 0 18 -4 37 -8 44 -6 10 -77 32 -105 33 -4
0 -6 -30 -5 -67 1 -67 -16 -122 -43 -139 -16 -9 -52 38 -101 133 -24 46 -46
83 -50 83 -4 0 -9 -9 -13 -19 -3 -10 -19 -38 -36 -61 -38 -52 -62 -51 -69 5
-8 62 -29 50 -75 -39 -66 -132 -100 -130 -100 5 0 73 2 83 24 100 14 12 21 25
17 35 -9 24 -39 12 -54 -21 -8 -17 -30 -53 -49 -82 -21 -32 -40 -76 -48 -115
-15 -75 -40 -138 -53 -138 -23 0 -22 52 2 107 22 53 23 59 8 76 -14 16 -14 22
1 70 10 31 35 75 62 106 25 29 45 57 45 62 0 22 -27 4 -89 -59 -78 -79 -153
-180 -179 -243 l-19 -44 1 90 c1 86 0 90 -21 93 -51 7 -3 102 72 142 31 17 61
44 82 74 39 56 44 82 13 66 -11 -6 -46 -10 -77 -8 -42 1 -66 -3 -86 -16 -37
-25 -46 -13 -19 24 29 38 28 40 -12 40 -37 0 -52 14 -48 43 5 28 -24 20 -73
-23 -25 -22 -52 -40 -59 -40 -6 0 -30 -18 -51 -40 -49 -50 -66 -52 -58 -5 9
57 -23 44 -104 -42 -75 -80 -79 -88 -127 -243 -39 -127 -135 -369 -136 -340 0
14 7 76 16 138 9 62 14 116 11 119 -12 11 -36 -6 -52 -36 -8 -17 -18 -58 -22
-91 -6 -61 -25 -102 -40 -87 -26 27 19 260 73 373 19 39 34 77 34 85 1 29 40
100 81 143 34 38 38 46 22 46 -22 0 -73 -31 -193 -118 -132 -95 -146 -108
-201 -190 -28 -42 -62 -86 -75 -99 -16 -14 -24 -33 -24 -54 0 -18 -8 -41 -17
-51 -12 -13 -20 -45 -24 -99 -4 -44 -13 -86 -19 -94 -16 -20 -9 -69 36 -259
34 -141 35 -155 24 -206 -16 -70 -36 -110 -56 -110 -12 0 -15 -6 -11 -22 9
-37 28 -121 33 -145 2 -12 22 -43 44 -68 22 -25 40 -51 40 -56 0 -6 35 -65 79
-132 112 -173 251 -420 251 -446 0 -12 -7 -24 -15 -27 -26 -10 -16 -24 18 -24
54 0 101 -18 145 -56 75 -64 84 -113 10 -52 -55 45 -71 52 -141 67 -45 10 -61
10 -72 1 -26 -22 -17 -38 19 -37 22 1 49 -9 76 -27 43 -29 44 -31 25 -93 -5
-16 -2 -23 14 -28 27 -8 27 -15 -8 -78 -29 -52 -66 -165 -58 -174 9 -8 102 28
124 49 27 25 47 73 39 93 -4 11 -14 14 -33 10 -25 -6 -26 -5 -9 6 14 9 58 10
160 6 163 -8 204 -17 250 -58 19 -16 41 -29 50 -29 18 0 76 27 76 35 0 3 -23
16 -51 31 -28 14 -49 28 -46 30 8 9 132 -24 192 -51 67 -29 85 -31 85 -9 0 11
5 14 18 9 66 -28 135 -27 192 2 19 9 38 12 48 7 13 -6 10 -9 -15 -12 -18 -2
-33 -5 -33 -8 0 -3 12 -15 27 -28 l27 -23 -41 -22 c-51 -25 -60 -38 -33 -46
12 -4 36 3 62 18 24 14 113 43 199 66 183 48 259 72 353 112 68 29 116 37 116
20 0 -19 -56 -75 -109 -109 -78 -50 -47 -52 52 -4 178 87 363 127 407 87 24
-22 54 -13 200 60 l105 52 124 -44 c69 -24 134 -43 145 -41 13 2 23 14 28 35
10 40 65 71 139 80 27 3 52 10 55 14 2 4 -9 34 -26 65 -25 48 -38 91 -27 95 1
1 100 4 220 8 203 6 220 8 233 26 26 38 34 44 73 56 45 13 86 6 95 -16 4 -11
-3 -19 -24 -27 -17 -5 -30 -17 -30 -25 0 -8 -9 -17 -20 -20 -35 -9 -21 -23 24
-23 28 0 54 8 76 23 51 34 57 49 30 85 -25 33 -24 75 2 129 13 26 18 28 66 26
29 -1 76 -9 104 -18 100 -29 182 -11 194 43 12 54 16 62 30 62 8 0 17 7 20 15
9 24 32 18 85 -21 l49 -36 -45 -50 c-25 -28 -45 -56 -45 -64 0 -19 -10 -18
-25 3 -12 16 -15 15 -32 -17 -10 -19 -30 -46 -45 -61 -16 -15 -28 -29 -28 -32
0 -3 12 -7 28 -9 27 -3 27 -3 30 -93 2 -49 0 -101 -3 -115 l-7 -25 -13 25 c-7
14 -23 73 -34 131 -27 143 -25 139 -77 139 -24 0 -53 5 -63 11 -22 14 -57 6
-91 -21 l-25 -19 35 5 c40 7 65 -12 54 -40 -8 -21 -171 -100 -239 -117 -38
-10 -60 -24 -97 -62 -27 -28 -46 -52 -44 -54 2 -2 52 21 111 52 60 30 115 55
123 55 16 0 14 -23 -13 -120 -29 -104 -12 -167 19 -72 19 57 70 122 96 122 10
0 20 9 23 20 6 23 68 55 90 47 9 -3 25 -43 38 -94 l24 -88 3 53 c2 36 7 52 15
49 8 -2 13 -39 15 -113 3 -107 13 -144 32 -114 5 8 10 29 10 46 0 45 11 94 21
94 10 0 29 -65 29 -98 0 -13 10 -36 21 -52 20 -26 21 -38 17 -112 -4 -49 -15
-107 -28 -143 -43 -116 -46 -144 -22 -237 12 -45 23 -105 23 -133 0 -27 4 -59
8 -70 8 -19 8 -19 21 4 10 19 10 38 0 97 -16 95 -8 292 14 354 10 25 26 86 37
135 43 195 56 214 51 78 -3 -72 0 -94 17 -128 13 -26 24 -77 30 -145 15 -155
64 -292 132 -372 28 -33 28 -33 29 -8 0 14 7 34 15 44 18 23 20 132 5 187 -6
20 -19 44 -29 53 -19 17 -19 17 -14 -3 6 -24 -21 -71 -41 -71 -40 0 -68 89
-46 145 11 29 12 29 26 11 8 -11 14 -31 15 -45 l0 -26 11 23 c6 12 16 22 22
21 40 -5 49 20 19 54 -37 40 -13 219 33 258 8 6 18 9 22 5 4 -4 7 -92 8 -196
0 -164 3 -190 18 -205 9 -10 32 -47 50 -84 66 -130 113 -155 57 -30 -41 93
-71 217 -71 301 0 68 10 89 34 69 11 -9 15 -3 20 26 4 21 13 52 20 68 14 30
14 29 15 -30 1 -92 -8 -132 -31 -138 -18 -5 -19 -11 -13 -59 10 -73 41 -168
65 -198 18 -23 20 -23 20 -5 0 11 -9 40 -20 64 -23 51 -25 87 -6 156 15 59 30
89 62 127 12 15 43 82 69 148 26 66 51 120 55 120 13 0 20 -29 20 -83 0 -97
11 -157 29 -157 47 -1 73 -54 150 -298 33 -105 65 -200 71 -212 13 -24 26 -26
34 -4 10 26 7 272 -4 279 -5 3 -19 1 -30 -5 -17 -9 -23 -5 -46 30 -15 22 -35
70 -45 107 -14 49 -29 77 -56 105 -30 31 -37 46 -41 90 -4 55 12 138 28 138
12 0 18 -24 26 -107 4 -40 9 -73 13 -73 3 0 28 30 55 65 27 36 51 65 54 65 11
0 -8 -74 -33 -127 -21 -44 -26 -64 -21 -97 11 -70 26 -78 26 -13 0 41 4 57 14
57 7 0 44 33 81 73 66 70 69 71 76 47 4 -14 8 -52 8 -85 1 -70 9 -105 24 -105
6 0 8 35 4 103 -6 110 6 169 35 175 35 7 87 -203 73 -297 -7 -47 -30 -101 -48
-113 -7 -4 -10 -43 -9 -95 l1 -88 -30 85 c-17 47 -35 90 -41 95 -18 18 0 -137
26 -221 13 -44 32 -108 40 -142 9 -35 25 -75 36 -89 26 -33 25 -45 -5 -81 -25
-30 -33 -70 -16 -87 5 -6 14 -26 19 -45 9 -34 9 -33 21 40 19 116 45 215 56
214 6 0 22 -42 37 -93 30 -99 48 -251 48 -391 l0 -85 -45 79 c-52 91 -67 105
-116 106 -22 0 -42 7 -53 19 -29 31 -56 138 -65 250 -5 63 -13 107 -20 109 -6
2 -11 18 -11 35 0 18 -4 38 -9 45 -11 19 -21 -85 -21 -230 l0 -119 30 -28 c37
-34 45 -60 71 -236 14 -97 29 -161 51 -212 16 -40 32 -73 35 -73 7 0 -4 254
-13 318 -6 35 -4 41 9 37 8 -4 18 -2 22 4 11 18 54 12 65 -8 5 -11 10 -35 10
-53 0 -18 11 -54 25 -80 14 -26 25 -54 25 -63 0 -27 41 -113 56 -119 17 -7 17
-3 -1 58 -19 61 -19 107 -1 131 13 18 14 18 49 -2 l35 -21 11 63 c6 35 23 88
37 119 14 31 24 66 22 78 -5 40 -32 25 -54 -30 -11 -28 -23 -55 -26 -58 -3 -3
-14 17 -23 45 -9 28 -21 54 -27 57 -11 7 -10 -3 10 -102 5 -22 5 -49 1 -60 -6
-17 -8 -16 -18 9 -6 16 -34 147 -61 291 -46 243 -61 360 -43 342 7 -7 41 -98
117 -314 32 -90 58 -133 69 -115 3 5 -12 55 -33 111 -41 109 -60 210 -60 322
0 77 6 100 26 100 17 0 31 -49 50 -180 20 -140 24 -144 21 -25 l-2 99 28 10
c36 13 50 -3 73 -86 9 -32 21 -58 26 -58 9 0 4 55 -18 190 -26 161 -28 220 -9
308 10 45 21 82 25 82 8 0 68 -316 76 -405 4 -42 19 -103 39 -155 45 -115 46
-120 54 -223 4 -65 10 -92 21 -97 62 -28 78 -40 107 -79 19 -24 41 -70 50
-102 17 -63 28 -70 73 -44 14 8 28 14 33 15 13 0 47 -64 47 -89 0 -23 -1 -24
-72 -17 -220 20 -220 20 -275 -7 -101 -52 -317 -249 -346 -317 -16 -38 -38
-60 -59 -60 -10 0 -18 3 -18 8 0 16 59 108 84 131 14 14 26 29 26 34 0 6 -27
-15 -59 -46 -54 -52 -70 -62 -93 -58 -5 0 -8 -7 -8 -17 0 -10 -12 -29 -26 -43
-25 -23 -84 -115 -84 -131 0 -17 50 -6 77 16 16 13 57 36 93 50 78 32 94 46
186 168 89 118 120 147 206 193 87 46 149 54 203 26 21 -12 53 -21 70 -21 48
0 92 -34 141 -110 29 -46 51 -70 61 -68 20 4 51 -47 67 -110 8 -28 18 -47 26
-47 9 0 17 -14 20 -35 4 -19 13 -46 22 -60 9 -14 22 -61 28 -105 24 -167 25
-169 34 -67 4 50 12 92 16 92 37 0 63 -189 49 -348 -7 -88 -21 -137 -57 -208
-11 -21 -32 -75 -47 -119 -15 -44 -77 -179 -138 -300 -60 -121 -120 -249 -134
-283 -30 -82 -51 -122 -135 -265 -39 -65 -68 -120 -65 -123 3 -3 15 9 27 25
21 30 56 44 47 19 -2 -7 3 -21 11 -31 15 -17 14 -22 -8 -65 -43 -81 -299 -322
-342 -322 -5 0 -8 11 -8 23 0 26 23 51 57 61 26 8 76 64 68 76 -3 5 -50 6
-104 3 l-98 -6 -65 60 c-36 34 -75 66 -87 72 -13 7 -21 21 -21 38 0 14 -11 35
-24 48 -16 15 -35 58 -55 123 -51 163 -71 158 -97 -29 -18 -134 -57 -326 -85
-427 -11 -41 -17 -82 -13 -95 9 -32 34 -57 56 -57 17 0 17 -2 -3 -42 -20 -39
-21 -53 -16 -158 6 -122 12 -150 31 -150 21 0 210 96 225 113 21 26 -11 23
-34 -3 -24 -26 -33 -25 -41 5 -3 14 -11 25 -16 25 -15 0 -4 59 21 116 28 62
35 52 16 -22 -22 -86 -20 -93 18 -57 17 16 53 40 78 52 26 12 100 71 165 132
66 60 137 121 159 134 23 13 55 45 73 70 17 25 38 45 47 45 19 0 20 4 -10 -75
-28 -73 -31 -110 -20 -195 6 -50 3 -64 -33 -155 -23 -55 -59 -168 -81 -251
-22 -82 -49 -175 -61 -205 -11 -29 -34 -103 -50 -164 -44 -170 -128 -395 -146
-395 -4 0 -3 12 1 27 5 22 4 25 -8 14 -8 -6 -20 -26 -27 -44 -6 -18 -16 -40
-22 -51 -7 -14 -4 -24 13 -42 29 -31 23 -66 -36 -212 -25 -62 -47 -130 -48
-152 -1 -29 -5 -36 -14 -28 -22 17 -34 -38 -31 -136 3 -87 4 -90 17 -58 7 18
21 37 31 42 10 5 21 25 24 43 3 19 20 51 36 73 16 21 30 44 30 51 0 20 68 85
81 78 16 -11 5 -81 -25 -155 -25 -62 -112 -200 -125 -200 -4 0 -5 14 -3 31 3
24 1 30 -9 27 -8 -3 -15 -15 -17 -29 -5 -40 -23 -89 -32 -89 -5 0 -6 8 -3 18
6 15 5 15 -10 3 -9 -7 -19 -29 -22 -50 -14 -82 -103 -243 -188 -338 -19 -21
-39 -48 -46 -60 -6 -12 -58 -78 -115 -147 -57 -68 -146 -186 -197 -262 -85
-126 -120 -165 -410 -458 -175 -177 -338 -337 -364 -356 -25 -19 -79 -64 -118
-99 -123 -108 -598 -407 -747 -470 -14 -6 -37 -20 -51 -32 -15 -11 -35 -19
-45 -17 -15 3 8 32 106 133 130 135 179 195 160 195 -23 0 -48 -20 -69 -55
-12 -21 -28 -35 -40 -35 -12 0 -47 -32 -94 -87 -110 -130 -253 -263 -332 -310
-133 -78 -250 -134 -275 -131 -22 3 -26 9 -32 53 -25 195 16 435 92 532 30 38
24 51 -9 19 -32 -31 -82 -119 -107 -188 -9 -24 -19 -96 -23 -161 -13 -182 -32
-181 -95 4 -44 130 -49 112 85 279 50 63 96 125 102 138 12 25 19 27 49 11 20
-11 21 -9 16 42 l-5 54 25 -53 c35 -74 57 -68 57 13 0 65 15 86 29 39 4 -16
16 -46 26 -68 14 -29 16 -46 9 -70 -13 -46 -11 -56 11 -56 38 0 48 -107 25
-258 -5 -27 -3 -47 5 -57 17 -21 42 -7 40 24 -3 44 -1 51 20 51 21 0 27 15 10
25 -5 3 -14 15 -20 25 -8 15 -6 21 10 30 16 8 24 6 40 -10 24 -24 26 -10 4 32
-13 24 -15 47 -11 96 4 41 2 72 -5 86 -7 11 -21 63 -32 114 -12 51 -25 92 -31
90 -6 -2 -9 -32 -7 -70 4 -98 -26 -87 -43 14 -3 21 -41 109 -84 196 -98 197
-127 278 -142 389 -6 48 -16 99 -21 113 -10 24 -11 24 -18 5 -4 -11 -4 -46 0
-77 3 -32 3 -58 0 -58 -4 0 -29 57 -57 128 -39 96 -48 130 -40 139 7 6 52 19
100 28 49 9 114 28 145 42 31 14 73 28 94 31 30 4 36 7 27 18 -12 15 76 129
195 252 84 86 105 101 218 146 120 48 308 138 308 146 0 4 -12 5 -27 3 -22 -4
-25 -2 -13 6 8 6 30 11 48 11 18 0 46 10 62 21 44 33 62 20 54 -40 -8 -61 10
-77 39 -35 28 40 136 143 169 160 37 19 43 2 13 -34 -32 -38 -55 -93 -55 -132
0 -37 22 -40 38 -6 12 27 194 231 245 276 43 37 75 53 94 46 18 -7 7 -27 -65
-115 -45 -56 -82 -123 -81 -151 0 -9 9 -3 22 15 12 16 49 61 82 98 80 91 95
116 95 154 0 27 8 37 57 70 61 40 166 158 188 209 7 16 51 71 97 121 47 50 89
104 92 119 8 32 71 130 199 312 100 142 100 143 156 442 72 378 76 464 31 565
-47 105 -97 275 -130 441 -37 188 -38 248 -5 343 33 98 49 191 36 204 -13 13
-31 -31 -31 -74 0 -33 -25 -89 -40 -89 -5 0 -12 16 -16 37 -11 57 3 368 21
479 19 117 17 179 -5 179 -11 0 -14 10 -12 40 3 32 1 37 -9 28 -8 -8 -15 -72
-20 -190 -8 -177 -26 -284 -49 -306 -10 -10 -11 10 -6 93 5 91 4 103 -8 87
-14 -18 -19 -42 -86 -422 -23 -126 -47 -250 -55 -275 -7 -25 -18 -75 -23 -111
-6 -37 -24 -93 -41 -127 -56 -111 -32 -124 53 -30 61 67 112 158 102 184 -10
25 -31 10 -36 -27 -6 -43 -34 -47 -38 -5 -2 18 4 40 17 57 12 16 21 38 22 51
l0 23 11 -22 c6 -13 14 -23 18 -23 4 0 14 26 23 58 9 33 23 64 31 71 13 11 13
17 0 47 -12 28 -12 34 -1 34 18 0 43 -28 52 -58 11 -36 -3 -89 -24 -95 -15 -3
-21 -21 -30 -87 -7 -45 -28 -134 -48 -198 -45 -150 -55 -210 -41 -259 13 -48
18 -37 49 102 35 164 41 157 54 -60 3 -55 11 -135 17 -179 12 -85 7 -96 -40
-96 -20 0 -21 2 -11 21 13 25 6 96 -11 113 -20 20 -30 -15 -30 -104 -1 -200
-33 -430 -62 -430 -7 0 -9 40 -6 134 4 110 8 141 26 176 22 45 21 63 -3 54
-12 -5 -14 2 -9 38 7 48 -22 208 -37 208 -5 0 -9 -6 -9 -14 0 -33 -40 -107
-63 -115 -20 -8 -25 -19 -31 -63 -4 -29 -10 -64 -13 -78 -6 -24 -5 -24 14 -8
24 22 28 22 47 2 23 -22 20 -57 -9 -114 -14 -27 -25 -62 -25 -78 0 -36 -60
-129 -146 -229 -36 -41 -72 -90 -80 -108 -15 -36 -71 -88 -85 -79 -5 3 -9 -3
-9 -13 0 -44 -126 -195 -137 -165 -4 10 -10 9 -30 -3 -35 -23 -40 -11 -14 35
17 31 45 167 36 178 -1 1 -38 -43 -81 -99 -120 -154 -112 -138 -85 -160 19
-16 21 -22 11 -34 -14 -17 -46 -20 -55 -4 -5 7 -15 5 -31 -5 -47 -31 -46 -17
6 62 27 43 35 62 25 62 -8 0 -22 -11 -31 -25 -9 -14 -25 -25 -35 -25 -11 0
-19 -6 -19 -13 0 -24 -204 -256 -215 -245 -4 3 5 24 19 45 14 20 26 42 26 47
0 5 20 35 43 65 46 59 72 101 62 101 -14 0 -94 -69 -160 -138 -63 -65 -74 -72
-109 -72 -25 0 -43 -6 -52 -17 -39 -54 -19 50 26 134 30 56 29 63 -6 63 -31 0
-54 -36 -54 -85 0 -49 -58 -170 -120 -250 -24 -31 -43 -65 -44 -77 -1 -21 -26
-39 -26 -19 0 7 -25 11 -66 11 -54 0 -65 3 -62 16 2 8 27 25 57 37 66 27 82
48 58 75 -9 10 -17 32 -17 48 l0 29 -19 -31 c-35 -58 -87 -79 -124 -51 -17 11
-17 15 -2 44 9 18 15 47 13 65 l-3 32 -45 -60 c-77 -102 -125 -281 -85 -314 9
-7 17 -11 19 -9 2 2 16 41 30 86 15 46 30 83 33 83 3 0 3 -25 -1 -56 l-6 -56
26 21 c32 25 47 26 64 6 10 -12 1 -26 -51 -81 -80 -83 -109 -100 -132 -76 -16
15 -17 15 -17 -1 0 -21 -10 -21 -58 -2 -41 18 -82 52 -82 70 0 17 -33 45 -53
45 -23 0 -21 -13 3 -35 25 -23 26 -35 2 -35 -20 0 -62 39 -62 57 0 6 -10 23
-21 37 -19 24 -20 32 -10 65 15 51 14 67 -5 107 -19 39 -31 43 -36 12 -5 -34
-26 -33 -45 3 -10 18 -30 45 -44 59 -18 18 -27 40 -32 77 -3 29 -26 114 -52
188 -25 75 -45 142 -45 151 0 8 -8 17 -17 21 -10 3 -26 13 -35 21 -17 14 -18
13 -18 -12 0 -15 7 -29 15 -32 20 -8 19 -24 -1 -39 -15 -10 -15 -21 -5 -101 7
-49 14 -100 17 -114 4 -20 3 -23 -7 -12 -7 6 -16 12 -20 12 -13 0 -29 -62 -30
-114 0 -71 -18 -118 -51 -134 -19 -9 -28 -21 -28 -38 0 -13 -9 -33 -19 -43
-11 -11 -40 -61 -64 -113 -65 -135 -162 -232 -162 -161 0 12 -3 24 -7 28 -10
11 -25 -25 -38 -95 -17 -86 -25 -100 -58 -100 -35 0 -68 23 -87 61 -14 25 -14
32 -1 51 21 34 27 61 16 78 -7 12 -15 8 -43 -23 -19 -20 -42 -37 -50 -37 -39
0 -75 -91 -42 -104 21 -8 18 -49 -5 -69 -17 -15 -19 -25 -15 -74 6 -56 5 -57
-8 -28 -19 41 -40 57 -73 53 -37 -4 -40 13 -9 50 27 32 31 43 14 40 -6 -2 -16
5 -22 14 -9 14 -8 24 4 45 9 16 22 44 28 64 7 23 30 52 62 78 27 24 56 58 64
78 8 19 26 48 40 65 14 17 23 33 19 37 -4 3 -9 0 -11 -7 -3 -7 -20 -19 -37
-26 -18 -8 -60 -35 -94 -61 -67 -52 -87 -52 -78 0 5 27 3 35 -12 39 -23 8 -62
-6 -101 -35 -50 -37 -81 -3 -45 49 24 35 2 26 -54 -22 -41 -35 -66 -48 -122
-60 -72 -17 -120 -13 -120 9 0 17 89 99 190 174 47 35 89 68 95 73 6 5 -29 8
-83 6 -57 -1 -96 2 -103 9 -8 8 -29 6 -81 -8 -38 -11 -73 -17 -79 -14 -5 4 -9
20 -9 36 0 38 -24 48 -48 19 -17 -21 -19 -21 -34 -6 -34 33 17 96 78 96 44 0
84 -19 84 -41 0 -52 511 -20 655 42 27 12 19 13 -100 21 -139 10 -209 25 -265
59 l-34 21 23 19 23 19 -29 11 c-40 17 -299 25 -317 10 -7 -6 -16 -24 -19 -39
-6 -29 -62 -102 -78 -102 -20 0 -59 49 -52 65 5 15 -2 17 -53 13 l-59 -3 -19
40 c-11 22 -37 69 -57 105 -21 37 -41 87 -45 115 -4 27 -16 63 -28 78 -18 25
-21 43 -21 135 0 59 4 120 8 136 l8 29 30 -42 c18 -24 39 -41 51 -41 27 0 75
36 83 61 4 12 16 30 26 40 10 10 19 31 19 47 0 15 5 34 10 42 17 24 40 -16 40
-69 1 -41 2 -44 14 -28 8 11 17 60 21 120 4 58 13 111 21 123 8 11 19 61 25
110 12 103 22 134 44 134 30 0 34 -43 18 -201 -13 -126 -14 -165 -4 -212 20
-95 111 -193 111 -120 0 16 7 38 16 49 14 18 15 14 9 -45 l-6 -64 23 17 c81
59 206 87 286 63 l52 -15 -25 30 c-46 54 -20 70 45 27 48 -33 81 -36 125 -13
37 19 73 3 81 -35 10 -45 13 -51 30 -58 24 -9 54 32 54 73 0 43 14 50 34 19 9
-14 23 -25 31 -25 11 0 15 -12 15 -45 0 -28 5 -47 13 -49 77 -21 97 -23 97
-10 0 21 35 34 118 44 68 7 80 12 104 39 33 37 35 60 9 92 -28 34 -53 16 -66
-46 -19 -89 -50 -67 -50 34 0 63 -1 66 -34 88 -45 30 -58 29 -79 -7 l-19 -30
-16 35 c-10 22 -24 35 -35 35 -32 0 -72 38 -72 69 0 25 -4 29 -39 35 -22 3
-46 9 -55 12 -12 5 -15 -4 -18 -43 -2 -40 -6 -48 -24 -51 -24 -3 -34 19 -34
78 0 38 -15 69 -26 57 -4 -4 -11 -26 -14 -50 l-6 -42 -39 77 c-39 78 -55 89
-55 40 0 -34 -31 -86 -64 -107 -36 -24 -47 -12 -39 41 l6 46 -31 -16 c-29 -15
-62 -13 -62 4 0 4 9 15 20 25 30 27 25 61 -15 101 -19 19 -35 41 -35 49 0 25
-15 17 -34 -20 -11 -19 -25 -40 -33 -46 -10 -9 -12 -6 -7 20 8 40 -9 61 -50
61 -18 0 -41 7 -52 15 -10 8 -27 15 -36 15 -14 0 -18 9 -18 40 0 47 -8 49 -40
15 -13 -14 -34 -25 -46 -25 -13 0 -47 -20 -77 -44 -66 -54 -94 -69 -113 -62
-12 5 -11 13 7 48 32 64 58 88 94 88 36 0 71 32 77 70 3 23 8 25 62 30 l58 5
-54 26 c-69 34 -164 120 -180 165 -6 19 -17 34 -24 34 -31 0 -33 -100 -3 -149
28 -46 22 -77 -13 -73 -23 3 -46 -16 -151 -120 -69 -68 -130 -133 -136 -146
-7 -13 -23 -27 -37 -32 -16 -6 -24 -17 -24 -33 0 -13 -11 -39 -25 -58 -66 -92
-112 -216 -99 -272 10 -47 101 -225 130 -254 19 -19 24 -32 19 -50 -5 -20 -3
-24 9 -20 35 14 3 -135 -33 -157 -19 -12 -12 -44 21 -109 25 -49 32 -78 36
-139 4 -74 3 -78 -16 -78 -31 0 -34 12 -17 75 19 76 -6 129 -35 74 -17 -31
-14 -239 5 -344 17 -99 15 -121 -21 -195 -28 -59 -29 -71 -9 -111 10 -19 17
-66 20 -132 5 -141 48 -298 130 -473 68 -147 225 -297 329 -315 22 -3 61 -10
85 -14 32 -6 42 -5 37 3 -12 19 4 14 53 -17 26 -17 72 -34 106 -40 42 -8 77
-23 117 -51 55 -38 59 -40 100 -30 24 5 78 10 120 10 42 0 80 5 83 10 8 12
145 13 164 1 14 -9 -152 -161 -367 -333 -61 -50 -112 -92 -112 -94 0 -1 21
-46 48 -100 41 -87 47 -107 47 -166 1 -60 3 -69 27 -88 33 -25 70 -121 66
-169 -3 -30 0 -36 22 -41 18 -4 26 -14 28 -33 3 -25 -2 -30 -60 -56 -85 -38
-271 -98 -344 -110 -32 -5 -90 -21 -128 -36 -37 -14 -91 -30 -120 -36 -28 -6
-130 -37 -226 -69 -350 -118 -369 -122 -600 -130 -230 -9 -210 -7 -210 -18 0
-22 63 -36 185 -40 186 -6 187 -20 6 -64 -97 -22 -186 -27 -202 -11 -6 6 -11
33 -11 59 1 37 -4 54 -20 71 -30 32 -53 29 -77 -11 -27 -43 -27 -46 8 -46 l28
0 5 -92 c5 -73 13 -114 42 -191 19 -54 40 -134 45 -177 14 -106 69 -404 82
-437 17 -45 34 -11 35 70 0 96 -1 93 37 102 25 6 27 9 12 12 -39 8 -74 25 -79
39 -3 7 10 31 29 54 18 22 43 66 55 97 22 59 51 106 153 247 31 43 57 86 57
97 0 54 -136 51 -228 -6 -80 -49 -126 -45 -132 10 -4 39 1 44 57 55 32 6 112
25 178 40 164 40 200 45 191 31 -14 -22 11 -11 50 23 22 19 48 50 59 70 17 32
24 36 58 36 36 0 39 -2 32 -22 -17 -56 -16 -74 4 -92 25 -22 27 -42 6 -50 -19
-7 -19 -26 0 -26 24 0 17 -37 -11 -59 -15 -12 -32 -21 -39 -21 -15 0 -65 -39
-51 -40 5 0 36 7 68 16 32 9 61 14 64 11 12 -11 25 -165 22 -257 -3 -91 -4
-94 -28 -101 -15 -4 -18 -7 -8 -8 21 -1 48 -39 48 -67 0 -12 7 -28 16 -35 14
-11 16 -28 12 -101 -5 -83 -4 -88 19 -108 22 -19 24 -26 18 -73 -10 -79 -14
-87 -48 -94 l-31 -6 41 -18 c34 -14 44 -25 53 -56 21 -68 11 -95 -44 -123 -26
-13 -42 -26 -35 -28 8 -2 32 -16 53 -31 37 -25 44 -26 160 -24 148 3 342 17
581 43 99 11 266 22 370 25 372 12 413 28 429 170 10 77 25 143 43 179 13 25
13 35 -3 85 -13 41 -18 90 -18 181 -1 114 1 128 22 162 14 22 22 49 20 65 -3
26 -6 28 -40 25 -38 -3 -38 -3 -38 36 0 21 6 46 13 55 28 38 213 102 330 115
58 7 62 9 67 36 5 26 24 38 262 152 142 68 278 130 304 139 57 19 72 10 76
-48 3 -38 5 -42 38 -48 23 -5 47 -21 70 -47 56 -62 324 -500 388 -632 17 -35
28 -77 30 -117 2 -35 7 -63 11 -63 3 0 55 60 114 133 157 193 218 262 239 265
24 4 63 63 133 202 33 63 71 126 85 140 14 14 48 68 74 121 l48 96 9 154 c12
181 0 331 -30 400 -11 25 -27 86 -35 135 -8 49 -17 101 -21 115 -7 29 0 38 53
70 18 10 42 35 53 54 12 19 26 35 32 35 5 0 93 82 194 182 129 128 187 178
194 171 7 -7 14 -133 19 -339 8 -286 13 -358 41 -549 43 -301 47 -348 48 -517
1 -162 8 -194 45 -204 61 -15 64 -32 101 -509 45 -585 60 -684 107 -693 12 -2
20 8 28 40 14 50 28 70 43 61 7 -4 8 5 3 28 -21 93 -25 117 -26 152 0 20 4 37
9 37 11 0 23 -38 40 -122 12 -58 42 -108 66 -108 7 0 18 14 25 30 22 53 69
110 106 127 30 15 34 21 29 44 -5 20 3 37 35 78 43 55 60 63 60 30 0 -36 23
-15 46 42 12 29 36 71 53 91 18 21 40 63 51 95 12 38 30 67 54 87 27 24 39 45
50 89 19 75 60 143 164 270 98 120 318 424 424 587 107 163 160 258 219 390
51 114 51 116 56 240 4 99 10 137 28 185 23 59 38 146 70 410 9 72 23 162 31
200 25 113 28 144 15 159 -10 12 -9 20 4 39 22 34 31 69 66 256 32 173 39 195
73 222 20 17 21 26 20 191 -1 95 -9 243 -18 328 -19 172 -26 189 -95 211 -47
15 -66 33 -97 88 -13 25 -38 54 -54 63 -17 10 -32 29 -36 45 -11 44 -33 83
-48 83 -12 0 -12 -7 -1 -45 8 -24 10 -47 6 -50 -11 -6 -34 21 -100 119 -61 92
-316 392 -353 416 -13 8 -32 17 -43 20 -11 3 -22 15 -24 25 -2 11 -12 32 -23
47 -10 15 -25 58 -33 95 -24 112 -77 613 -72 674 3 31 21 101 40 155 20 54 56
157 81 227 28 79 46 145 46 173 0 34 12 68 56 152 170 323 234 455 234 485 0
18 12 52 26 77 66 113 120 350 112 491 -4 72 -16 117 -68 270 -60 175 -95 259
-111 259 -12 0 -39 67 -39 99 0 34 26 54 40 30 5 -7 12 -11 15 -8 19 20 35
235 55 764 6 149 17 338 25 420 33 333 37 399 30 479 -5 64 -11 89 -26 102
-17 15 -27 54 -14 54 3 0 17 -7 30 -16 37 -24 31 -9 -24 60 -27 33 -59 81 -72
106 -30 60 -46 78 -94 103 -38 21 -39 22 -14 25 14 2 44 -1 67 -6 42 -10 42
-10 36 17 -16 74 -38 121 -79 171 -63 77 -58 94 23 71 17 -5 32 -7 32 -5 0 10
-71 98 -92 113 -12 9 -71 41 -132 71 l-111 55 -70 140 c-38 77 -118 212 -176
300 -58 88 -125 195 -149 237 -24 43 -75 119 -113 170 -38 51 -82 118 -97 149
-20 38 -42 64 -72 84 -24 15 -88 65 -143 110 -167 137 -325 235 -378 235 -25
0 -73 26 -133 72 -80 60 -139 71 -146 25 -3 -19 -9 -22 -50 -20 -27 2 -48 0
-48 -2 0 -3 28 -19 63 -34 54 -25 108 -61 170 -116 9 -8 17 -25 17 -37 0 -13
9 -36 20 -53 21 -32 27 -75 10 -75 -5 0 -27 15 -47 33 -55 47 -94 75 -229 160
-67 42 -127 84 -134 92 -7 8 -22 15 -34 15 -12 0 -80 29 -151 65 -117 59 -171
76 -188 58z m81 -41 c3 -9 -2 -13 -14 -10 -9 1 -19 9 -22 16 -3 9 2 13 14 10
9 -1 19 -9 22 -16z m621 -82 c51 -25 101 -68 101 -86 0 -20 -13 -18 -73 12
-65 33 -87 52 -87 76 0 23 11 23 59 -2z m-504 -63 c123 -56 279 -186 260 -217
-13 -22 -62 -8 -126 35 -64 43 -97 57 -84 35 16 -25 -25 -6 -53 25 -20 21 -38
32 -47 29 -8 -4 -15 -1 -15 5 0 7 -16 19 -36 27 -27 11 -34 18 -26 26 8 8 29
6 76 -6 36 -10 71 -16 78 -14 15 5 -72 58 -96 58 -19 0 -76 27 -76 36 0 13 78
-9 145 -39z m792 -88 c7 -6 13 -18 13 -26 0 -17 -21 -6 -70 37 l-35 30 39 -15
c22 -8 45 -20 53 -26z m-1214 14 c-7 -2 -21 -2 -30 0 -10 3 -4 5 12 5 17 0 24
-2 18 -5z m754 -51 c89 -71 148 -151 126 -173 -12 -12 -73 35 -73 57 0 7 -27
42 -60 77 -33 36 -60 67 -60 71 0 14 21 4 67 -32z m-917 -12 c0 -5 -12 -10
-26 -10 -14 0 -23 4 -19 10 3 6 15 10 26 10 10 0 19 -4 19 -10z m-390 -45 c4
-25 15 -35 60 -57 l55 -27 -48 0 c-58 -1 -97 18 -131 62 -37 48 -34 59 16 55
39 -3 43 -6 48 -33z m-241 6 c73 -20 -14 -52 -137 -50 -110 1 -189 35 -117 50
40 9 224 9 254 0z m-669 -47 c39 -20 58 -24 87 -19 30 5 50 0 98 -24 33 -17
76 -44 95 -60 l35 -30 -26 -1 c-15 0 -71 12 -125 26 -244 65 -282 74 -324 73
l-45 -1 35 -15 c35 -16 35 -16 10 -24 -35 -10 -172 -10 -189 0 -22 14 -3 31
36 31 l35 0 -23 19 c-28 23 -23 26 61 40 111 18 186 13 240 -15z m467 -39
c188 -48 273 -77 273 -91 0 -23 -86 -47 -144 -40 -84 10 -179 43 -204 71 -12
14 -32 25 -45 25 -24 0 -109 49 -122 71 -12 19 81 5 242 -36z m1031 11 c30
-16 81 -66 66 -66 -17 1 -108 55 -112 68 -5 16 13 15 46 -2z m397 2 c28 -13
33 -28 9 -28 -21 0 -54 18 -54 30 0 13 14 13 45 -2z m-520 -48 c111 -44 206
-98 213 -119 3 -10 -5 -8 -29 6 -19 12 -61 24 -94 28 -97 12 -206 58 -242 103
-37 45 7 40 152 -18z m-570 30 c-3 -5 -15 -10 -26 -10 -10 0 -19 5 -19 10 0 6
12 10 26 10 14 0 23 -4 19 -10z m1672 -24 c15 -8 40 -19 56 -25 19 -8 27 -18
27 -36 0 -21 -5 -25 -28 -25 -35 0 -68 23 -87 60 -24 46 -18 50 32 26z m-410
-21 c15 -13 22 -25 15 -25 -19 0 -72 29 -72 40 0 18 28 10 57 -15z m785 -29
c93 -77 197 -176 209 -199 7 -13 7 -23 1 -29 -7 -7 -48 27 -122 98 -113 110
-179 184 -163 184 5 0 39 -24 75 -54z m-1172 34 c0 -5 -9 -10 -21 -10 -11 0
-17 5 -14 10 3 6 13 10 21 10 8 0 14 -4 14 -10z m-2070 -26 c11 -13 10 -16 -8
-21 -27 -7 -27 -11 -2 -38 23 -25 39 -95 22 -95 -21 0 -82 115 -82 155 0 20
54 20 70 -1z m1295 -14 c3 -6 -4 -10 -17 -10 -18 0 -20 2 -8 10 19 12 18 12
25 0z m110 -10 c49 -24 98 -72 93 -93 -2 -12 -11 -12 -55 5 -66 26 -119 69
-110 91 8 22 22 21 72 -3z m-1534 -6 c10 -13 10 -17 -2 -25 -20 -13 -97 -11
-105 3 -19 31 81 53 107 22z m2320 -40 c36 -37 34 -53 -3 -34 -32 17 -78 62
-73 71 9 14 43 -3 76 -37z m-3478 18 c9 -10 20 -33 23 -50 8 -41 -17 -72 -58
-72 -30 0 -33 7 -28 70 4 66 31 88 63 52z m585 -28 c-2 -15 -8 -29 -15 -31
-17 -6 -26 33 -13 58 15 28 33 11 28 -27z m955 35 c22 -6 55 -26 75 -46 l37
-35 -38 28 -38 27 7 -42 7 -41 -57 6 c-53 6 -57 5 -77 -20 -38 -49 -106 -13
-112 58 -2 26 2 30 33 38 19 5 42 16 50 24 17 17 60 18 113 3z m449 -30 c68
-15 158 -54 158 -70 0 -26 -191 18 -276 64 l-29 16 47 1 c26 0 71 -5 100 -11z
m-2856 -49 c-7 -56 -53 -240 -61 -248 -3 -3 -7 -3 -10 -1 -7 7 13 177 26 219
27 90 55 109 45 30z m3267 23 c13 -8 -21 -33 -46 -33 -23 0 -77 31 -77 44 0 9
105 0 123 -11z m1911 -37 c89 -91 163 -216 128 -216 -5 0 -27 13 -49 29 -100
73 -200 241 -142 241 6 0 34 -24 63 -54z m-1004 -20 c139 -78 146 -83 154
-120 l7 -28 -38 23 c-81 49 -170 108 -204 135 -20 16 -45 34 -55 41 -18 11
-18 12 1 12 11 1 72 -28 135 -63z m-2365 19 c29 -28 32 -45 8 -45 -23 0 -53
29 -53 52 0 25 16 23 45 -7z m255 0 c19 -22 4 -45 -28 -45 -33 0 -57 22 -48
45 7 19 60 20 76 0z m-864 -24 c-8 -13 -36 -15 -36 -3 0 4 5 13 12 20 14 14
34 0 24 -17z m3235 0 c51 -35 169 -151 152 -151 -6 0 -53 36 -104 80 -50 44
-96 80 -100 80 -5 0 -9 5 -9 10 0 16 14 12 61 -19z m-2816 -112 c15 -27 14
-29 -4 -29 -11 0 -31 15 -44 33 -26 34 -67 111 -67 124 1 13 99 -96 115 -128z
m1820 111 c10 -11 15 -23 11 -27 -9 -9 -58 18 -64 35 -6 20 33 14 53 -8z m412
-35 c45 -39 39 -53 -15 -37 -45 14 -77 45 -69 66 8 21 39 10 84 -29z m-554 28
c-7 -2 -19 -2 -25 0 -7 3 -2 5 12 5 14 0 19 -2 13 -5z m-193 -50 c13 -14 12
-14 -10 -8 -40 12 -80 35 -80 45 0 13 70 -16 90 -37z m-540 -16 c0 -6 -11 0
-25 13 -14 13 -25 28 -25 33 0 6 11 0 25 -13 14 -13 25 -28 25 -33z m286 2
c88 -49 101 -85 21 -54 -73 28 -158 109 -94 90 12 -4 45 -20 73 -36z m-1417 9
l36 -23 -28 -3 c-42 -5 -52 -34 -27 -83 22 -43 24 -100 2 -107 -18 -6 -39 53
-46 136 -5 51 -4 78 5 88 15 18 15 18 58 -8z m3912 -10 c6 -11 8 -22 5 -25 -8
-9 -46 27 -46 43 0 19 28 6 41 -18z m-2233 -43 c40 -37 31 -45 -21 -19 -44 23
-58 35 -51 45 10 17 35 9 72 -26z m381 21 c9 -10 9 -16 1 -21 -12 -7 -40 11
-40 26 0 14 26 10 39 -5z m-142 -58 c58 -36 79 -59 66 -72 -10 -10 -57 22
-118 79 -63 59 -50 57 52 -7z m664 13 c30 -27 51 -52 47 -56 -13 -13 -99 51
-119 88 -18 33 16 18 72 -32z m-1868 -12 c47 -24 83 -69 56 -69 -18 0 -89 54
-89 68 0 15 5 15 33 1z m268 1 c26 -14 24 -32 -3 -28 -13 2 -24 11 -26 21 -4
20 2 21 29 7z m2643 -19 c27 -29 15 -50 -12 -23 -22 22 -29 42 -14 42 5 0 17
-9 26 -19z m-348 -37 c9 -13 14 -28 10 -31 -8 -9 -66 47 -66 64 0 20 36 -1 56
-33z m-770 15 c39 -24 49 -58 12 -38 -30 15 -58 40 -58 51 0 12 10 10 46 -13z
m-2126 -44 c24 -24 41 -47 37 -51 -9 -9 -63 32 -87 66 -33 47 -1 37 50 -15z
m129 -20 c50 -58 40 -72 -21 -30 -40 27 -63 59 -53 75 9 14 36 -3 74 -45z
m-196 -55 c73 -69 87 -105 22 -56 -48 37 -135 125 -135 137 0 18 40 -11 113
-81z m3728 -63 c-24 -24 -131 45 -131 85 0 19 0 19 26 -1 38 -30 44 -27 44 27
l1 47 35 -74 c22 -47 31 -78 25 -84z m-1775 103 c24 -17 44 -33 44 -35 0 -13
-22 -2 -60 30 -52 43 -44 45 16 5z m-1098 -94 c3 -16 1 -16 -25 -3 -15 9 -46
32 -68 52 l-40 37 65 -35 c36 -18 67 -42 68 -51z m101 37 c72 -41 359 -237
426 -290 46 -36 56 -48 42 -51 -37 -7 -347 196 -467 307 -71 66 -71 75 -1 34z
m-343 -14 c72 -37 197 -131 218 -164 40 -61 3 -47 -153 58 -164 110 -207 181
-65 106z m-1116 6 c10 -12 10 -18 0 -29 -14 -18 -40 -10 -40 13 0 32 20 40 40
16z m3078 -85 c24 -17 41 -34 38 -37 -7 -8 -134 53 -173 83 -19 14 -31 29 -28
35 7 11 103 -36 163 -81z m-2721 58 c33 -31 28 -43 -7 -18 -16 12 -30 26 -30
31 0 15 12 11 37 -13z m4203 -10 c11 -18 24 -48 30 -67 5 -19 23 -52 40 -73
33 -40 52 -108 31 -108 -25 0 -150 222 -151 268 0 24 31 12 50 -20z m-5403
-10 c-3 -7 -5 -2 -5 12 0 14 2 19 5 13 2 -7 2 -19 0 -25z m1325 5 c18 -16 25
-43 11 -43 -10 0 -53 42 -53 52 0 13 22 9 42 -9z m368 -53 c0 -19 -28 -10 -74
25 -25 20 -46 38 -46 41 0 2 27 -9 60 -26 33 -17 60 -35 60 -40z m945 19 c68
-60 22 -53 -53 8 -26 21 -26 22 -5 23 12 0 38 -14 58 -31z m226 4 c27 -16 38
-33 22 -33 -11 0 -70 49 -60 50 5 0 22 -8 38 -17z m2203 -29 c19 -19 21 -44 3
-44 -19 0 -37 21 -37 42 0 22 13 23 34 2z m-4444 -33 c11 -21 1 -34 -16 -23
-6 4 -13 15 -17 25 -9 24 19 22 33 -2z m-82 -14 c2 -12 -3 -17 -17 -17 -12 0
-21 6 -21 13 0 31 32 34 38 4z m1088 -9 c4 -5 -4 -8 -17 -6 -12 1 -24 8 -26
15 -5 14 34 6 43 -9z m-1986 -44 c0 -8 -4 -14 -9 -14 -12 0 -32 26 -25 33 10
9 34 -4 34 -19z m1559 -22 c63 -31 76 -52 34 -52 -28 0 -113 46 -127 69 -13
20 38 11 93 -17z m-1118 -29 c5 -15 8 -36 7 -47 -3 -21 -4 -21 -14 -1 -6 11
-14 32 -18 48 -8 35 11 36 25 0z m2366 -45 c87 -51 102 -79 21 -38 -42 21
-130 90 -116 90 4 0 47 -23 95 -52z m-1694 -3 c20 -14 37 -33 37 -41 0 -16 -6
-14 -52 19 -27 20 -44 47 -30 47 4 0 24 -11 45 -25z m-793 -57 c0 -10 -5 -16
-10 -13 -16 10 -40 62 -32 69 10 10 42 -33 42 -56z m1903 41 c97 -49 149 -89
115 -89 -12 0 -168 99 -168 106 0 7 11 4 53 -17z m-1146 -42 c9 -9 14 -19 12
-21 -6 -6 -88 57 -89 67 0 11 57 -23 77 -46z m676 -16 c38 -14 83 -38 100 -52
27 -23 30 -29 18 -43 -19 -23 -48 -20 -114 14 -115 58 -181 131 -104 115 17
-4 63 -19 100 -34z m-1803 14 c7 -9 10 -18 7 -21 -10 -11 -37 5 -37 21 0 19
14 19 30 0z m877 -67 c24 -23 30 -38 13 -38 -13 0 -50 37 -50 50 0 16 12 12
37 -12z m1273 -13 c20 -24 5 -28 -21 -6 -19 16 -20 20 -8 21 9 0 22 -7 29 -15z
m-2220 -62 c0 -14 25 -78 55 -144 57 -122 75 -179 57 -179 -16 0 -32 25 -67
111 -19 45 -46 99 -61 120 -26 38 -36 112 -18 140 10 17 34 -18 34 -48z m92
40 c25 -29 45 -75 53 -122 4 -24 15 -58 25 -75 10 -17 22 -48 26 -70 12 -68
-18 -37 -49 50 -15 43 -34 84 -42 90 -9 7 -13 19 -9 28 4 10 0 18 -10 22 -9 3
-16 17 -16 29 0 13 -4 27 -10 30 -15 9 -12 35 3 35 8 0 21 -8 29 -17z m1999
-21 c24 -16 53 -39 64 -52 l20 -23 -25 8 c-42 12 -115 60 -118 78 -5 24 7 21
59 -11z m-1084 -156 c131 -132 158 -166 134 -166 -14 0 -134 95 -190 151 -56
57 -111 130 -111 148 0 28 33 1 167 -133z m1668 112 c14 -6 25 -15 25 -20 0
-11 -7 -10 -40 7 -47 24 -34 36 15 13z m-2385 -40 c20 -34 27 -88 11 -88 -11
0 -41 73 -41 100 0 28 7 25 30 -12z m1058 -12 c3 -13 -1 -17 -14 -14 -11 2
-20 11 -22 22 -3 13 1 17 14 14 11 -2 20 -11 22 -22z m-846 -23 c24 -27 50
-84 43 -91 -9 -9 -52 45 -64 81 -11 31 -1 35 21 10z m248 -34 c16 -38 4 -51
-21 -20 -23 28 -27 80 -5 62 8 -6 19 -25 26 -42z m5513 25 c85 -29 86 -64 0
-64 -58 0 -73 8 -73 39 0 46 6 48 73 25z m-4458 -54 c0 -19 -18 -22 -40 -7
-12 9 -16 20 -12 32 7 16 9 16 30 2 12 -8 22 -20 22 -27z m-264 -40 c73 -43
98 -67 58 -55 -44 14 -114 53 -133 74 -30 33 0 26 75 -19z m4993 2 c85 -40
116 -65 96 -77 -14 -8 -202 85 -208 103 -6 21 27 13 112 -26z m-1228 -3 c35
-29 4 -90 -35 -69 -21 11 -51 59 -51 81 0 14 65 6 86 -12z m317 -16 c9 -8 -22
-43 -39 -43 -22 0 -28 23 -9 37 21 14 38 17 48 6z m-4160 -53 c29 -27 47 -50
40 -50 -6 0 -36 22 -65 50 -29 27 -47 49 -40 50 8 0 37 -22 65 -50z m3609 38
c17 -13 21 -28 19 -60 -2 -34 -70 -17 -91 23 -21 39 33 67 72 37z m104 4 c13
-9 44 -54 44 -64 0 -5 -14 -8 -30 -8 -23 0 -33 6 -42 24 -17 38 0 68 28 48z
m-3181 -42 c11 -18 -10 -10 -40 16 l-30 25 32 -15 c17 -9 35 -20 38 -26z
m4379 24 c10 -26 7 -34 -12 -34 -24 0 -42 19 -35 36 7 19 39 18 47 -2z m-2619
-14 l40 -19 -32 0 c-41 -1 -63 8 -63 25 0 18 6 17 55 -6z m-3301 -13 c15 -24
-3 -35 -20 -13 -8 11 -14 24 -14 29 0 13 22 3 34 -16z m4485 -13 c37 -31 40
-54 7 -54 -45 0 -76 18 -76 43 0 45 24 49 69 11z m836 -9 c0 -16 -5 -30 -12
-32 -14 -5 -28 40 -18 57 12 19 30 4 30 -25z m427 -12 c18 -16 25 -43 11 -43
-12 0 -43 33 -43 47 0 17 10 17 32 -4z m-1404 -19 c3 -24 -36 -61 -76 -71 -18
-4 -29 -1 -39 12 -21 30 -15 50 20 68 45 23 91 18 95 -9z m-1267 -20 c17 -8
29 -18 26 -20 -6 -6 -77 22 -77 30 0 10 20 6 51 -10z m1093 0 c9 -8 16 -26 16
-38 0 -51 -90 -140 -135 -134 -22 3 -49 52 -59 106 -5 32 -5 32 35 32 32 0 46
6 61 25 22 28 59 33 82 9z m554 0 c-5 -25 -35 -41 -49 -27 -18 18 -3 43 26 43
19 0 26 -5 23 -16z m-4347 -44 c96 -63 196 -157 213 -200 9 -24 15 -45 12 -48
-9 -8 -50 23 -138 104 -98 90 -148 144 -148 162 0 18 12 15 61 -18z m3332 -4
c76 -18 96 -36 41 -36 -40 0 -180 32 -191 44 -12 11 92 6 150 -8z m-3423 -178
c0 -19 -26 -5 -67 37 -25 27 -43 55 -43 68 1 18 10 13 55 -37 30 -33 55 -63
55 -68z m3348 47 c25 0 27 -6 10 -23 -17 -17 -44 -15 -62 4 -23 23 -20 37 7
28 12 -5 32 -8 45 -9z m-3564 -119 c14 -28 23 -53 21 -55 -12 -12 -115 136
-115 164 1 16 7 13 35 -19 20 -22 46 -62 59 -90z m3957 101 c48 -32 51 -57 5
-57 -40 0 -66 21 -66 56 0 30 17 31 61 1z m-4112 -49 c33 -35 58 -85 48 -95
-14 -13 -66 54 -82 105 -9 30 -1 28 34 -10z m3385 26 c25 -10 19 -43 -9 -50
-27 -7 -55 9 -55 31 0 21 34 30 64 19z m-2274 -60 c41 -27 51 -44 26 -44 -18
0 -109 62 -114 78 -5 17 34 1 88 -34z m2091 20 c9 -11 8 -14 -3 -14 -22 0 -78
21 -78 29 0 12 69 -1 81 -15z m-958 9 c-7 -2 -21 -2 -30 0 -10 3 -4 5 12 5 17
0 24 -2 18 -5z m661 -43 c36 -12 78 -32 93 -45 l28 -24 -35 -1 c-20 0 -46 7
-59 16 -13 9 -48 24 -79 33 -59 18 -81 41 -39 41 14 0 55 -9 91 -20z m1202 -1
c13 -22 -13 -31 -45 -15 -17 9 -31 19 -31 21 0 10 69 5 76 -6z m-3292 -61 c5
-9 7 -20 3 -24 -8 -9 -32 11 -60 50 l-22 31 34 -20 c19 -11 39 -28 45 -37z
m1621 42 c-3 -5 -15 -10 -26 -10 -11 0 -17 5 -14 10 3 6 15 10 26 10 11 0 17
-4 14 -10z m2033 -31 c3 -39 -12 -89 -28 -89 -11 0 -13 71 -4 108 9 33 28 21
32 -19z m-1343 1 c12 -37 -20 -55 -45 -25 -10 12 -10 18 0 30 17 21 37 19 45
-5z m-1708 -22 c65 -24 82 -44 30 -35 -48 8 -127 43 -127 57 0 12 13 9 97 -22z
m2753 -15 c0 -20 -3 -24 -11 -16 -7 7 -9 19 -6 27 10 24 17 19 17 -11z m-2055
7 c4 -6 -6 -10 -22 -10 -22 0 -25 2 -13 10 19 12 27 12 35 0z m-1815 -57 c0
-17 -11 -17 -35 1 -12 8 -16 19 -11 31 6 17 7 17 26 0 11 -10 20 -24 20 -32z
m240 -23 c19 -16 31 -32 27 -36 -16 -16 -153 78 -141 97 6 11 63 -19 114 -61z
m5423 9 c-8 -8 -14 -6 -22 9 -13 25 -2 37 18 17 11 -11 12 -18 4 -26z m-4288
-20 c42 -37 45 -52 9 -39 -35 14 -84 49 -84 61 0 19 41 8 75 -22z m-420 -43
c52 -26 95 -51 95 -56 0 -37 -136 -39 -172 -2 -18 17 -19 23 -8 36 11 14 9 16
-9 16 -11 0 -35 14 -53 31 l-33 31 43 -5 c23 -3 85 -26 137 -51z m1169 44 c40
-15 31 -30 -16 -30 -52 0 -118 17 -118 30 0 13 101 13 134 0z m1256 -4 c0 -21
-64 -86 -84 -86 -13 0 -17 7 -14 27 5 42 98 98 98 59z m-2235 -30 c50 -23 93
-61 82 -72 -8 -8 -121 53 -143 77 -24 27 -2 25 61 -5z m840 -7 c50 -11 146
-24 215 -29 135 -10 191 -22 211 -46 10 -12 9 -19 -9 -37 -31 -30 -103 -26
-222 12 -52 17 -108 31 -123 31 -15 0 -42 7 -59 16 -17 9 -51 22 -77 30 -25 8
-52 18 -60 23 -18 12 -3 34 18 26 9 -4 57 -16 106 -26z m480 1 c16 -17 16 -24
5 -48 -12 -27 -12 -27 -21 -4 -6 17 -16 22 -43 22 -39 0 -53 14 -36 35 18 22
74 19 95 -5z m-1117 -34 c3 -12 -1 -17 -10 -14 -7 3 -15 13 -16 22 -3 12 1 17
10 14 7 -3 15 -13 16 -22z m-1222 -1 c19 -14 19 -14 -2 -15 -12 0 -27 7 -34
15 -17 20 9 21 36 0z m4100 -19 c7 -38 -9 -98 -32 -116 -12 -11 -14 -6 -14 30
0 48 19 120 31 120 5 0 11 -15 15 -34z m-2680 10 c10 -8 16 -17 12 -21 -7 -7
-48 16 -48 27 0 12 14 9 36 -6z m3928 -110 c0 -52 -3 -93 -9 -96 -12 -6 -31
181 -21 207 14 36 29 -17 30 -111z m-1627 69 c-4 -25 -18 -66 -32 -93 l-26
-47 6 75 c7 82 18 110 42 110 13 0 15 -8 10 -45z m-3769 -51 c28 -9 52 -18 52
-21 0 -3 -27 -3 -60 0 -66 7 -134 37 -144 62 -12 32 5 34 52 4 26 -16 71 -37
100 -45z m1390 33 c2 -11 -2 -14 -17 -10 -26 7 -45 29 -36 43 9 14 49 -11 53
-33z m4488 -83 c-3 -8 -10 -14 -16 -14 -14 0 -13 73 3 107 12 27 12 26 15 -26
2 -30 1 -60 -2 -67z m-5360 96 c24 -9 25 -13 13 -24 -26 -26 -57 -29 -68 -7
-9 15 -18 19 -44 15 -20 -4 -39 0 -52 10 -19 14 -15 15 52 16 39 0 84 -5 99
-10z m203 -1 c43 -15 26 -33 -23 -24 -21 4 -36 13 -36 21 0 17 16 18 59 3z
m957 0 c3 -6 2 -15 -3 -20 -13 -13 -43 -1 -43 17 0 16 36 19 46 3z m-171 -49
c0 -22 -29 -18 -33 3 -3 14 1 18 15 15 10 -2 18 -10 18 -18z m3001 -22 c-12
-74 -86 -125 -86 -60 0 21 7 32 25 40 14 7 30 23 35 37 16 42 33 31 26 -17z
m291 16 c9 -23 -11 -38 -26 -20 -13 16 -7 36 10 36 5 0 12 -7 16 -16z m-3442
-14 c0 -20 -99 -59 -150 -60 -35 0 -38 2 -24 15 22 22 130 65 154 62 11 -1 20
-9 20 -17z m855 -20 c0 -11 -7 -20 -15 -20 -18 0 -19 12 -3 28 16 16 18 15 18
-8z m2115 0 c0 -8 -8 -16 -17 -18 -13 -2 -18 3 -18 18 0 15 5 20 18 18 9 -2
17 -10 17 -18z m-4112 -11 c42 -19 32 -29 -31 -29 -57 0 -102 19 -102 42 0 14
94 5 133 -13z m576 -3 c26 -17 -9 -26 -137 -37 -123 -11 -134 -10 -152 6 -43
39 -23 45 146 41 71 -1 136 -6 143 -10z m989 2 c-6 -17 -36 -34 -45 -24 -4 4
1 14 11 22 24 17 39 18 34 2z m3272 -37 c0 -16 10 -41 21 -55 21 -26 21 -34
14 -144 -10 -158 -11 -241 -1 -278 6 -25 3 -36 -16 -59 -32 -37 -57 -28 -102
35 -37 52 -53 61 -61 35 -16 -51 -14 -49 -35 -30 -21 19 -33 66 -28 110 l3 28
33 -28 c18 -15 35 -25 39 -22 3 3 -5 28 -18 54 -18 37 -23 65 -24 123 0 67 3
80 30 122 17 27 33 48 38 48 4 0 7 -24 7 -52 l0 -53 26 45 c14 25 29 63 31 85
10 73 43 101 43 36z m-1079 -3 c-4 -12 -13 -24 -19 -26 -15 -5 -15 31 0 46 17
17 28 5 19 -20z m-3573 -25 c-10 -2 -26 -2 -35 0 -10 3 -2 5 17 5 19 0 27 -2
18 -5z m3602 -114 c-13 -58 -25 -87 -34 -78 -8 7 12 123 26 156 l12 28 4 -24
c2 -14 -2 -50 -8 -82z m-279 -12 c-6 -15 -15 -27 -21 -27 -15 0 -12 36 7 78
l17 37 3 -31 c2 -16 -1 -42 -6 -57z m-2841 64 c0 -11 -59 -36 -66 -28 -3 3 7
12 23 21 33 18 43 19 43 7z m4301 -13 c21 -39 -12 -278 -38 -278 -17 0 -17
-11 4 228 6 75 14 87 34 50z m-5508 -22 c7 -17 -18 -40 -33 -31 -5 3 -10 15
-10 26 0 23 35 27 43 5z m5652 -101 c4 -22 2 -51 -3 -65 -9 -24 -10 -24 -21
15 -6 22 -11 65 -10 95 1 55 1 55 14 25 8 -16 17 -48 20 -70z m193 38 c-4 -43
-25 -55 -34 -19 -8 33 1 56 21 56 13 0 15 -9 13 -37z m112 -63 c0 -10 -4 -22
-10 -25 -6 -4 -10 7 -10 25 0 18 4 29 10 25 6 -3 10 -15 10 -25z m-107 -71
c55 -113 62 -437 12 -554 l-13 -30 -12 30 c-15 37 -17 89 -7 133 8 28 6 32
-11 32 -11 0 -24 6 -30 13 -14 16 -62 189 -69 246 -4 41 -3 47 19 56 14 6 28
25 36 50 7 22 15 46 17 53 9 24 40 8 58 -29z m-204 -109 c21 -130 4 -220 -19
-103 -6 32 -15 73 -20 91 -5 19 -7 40 -4 48 2 8 6 22 9 31 9 28 23 1 34 -67z
m348 -17 c-2 -16 -4 -3 -4 27 0 30 2 43 4 28 2 -16 2 -40 0 -55z m183 9 c13
-48 13 -112 -1 -112 -25 0 -49 103 -33 144 9 23 22 11 34 -32z m-1026 -84 c36
-56 46 -194 12 -157 -22 23 -46 97 -46 139 0 45 12 51 34 18z m-286 -12 c2
-10 -1 -23 -6 -28 -12 -12 -36 27 -27 43 10 15 29 5 33 -15z m424 -23 c24 -21
23 -60 -1 -73 -26 -13 -51 11 -51 49 0 44 20 53 52 24z m-152 -155 c11 -18 20
-50 20 -70 0 -38 -17 -95 -25 -86 -7 7 -44 150 -45 171 0 28 29 19 50 -15z
m1010 -14 c0 -14 -4 -23 -10 -19 -5 3 -10 15 -10 26 0 10 5 19 10 19 6 0 10
-12 10 -26z m-130 -49 c0 -45 -12 -60 -24 -29 -8 21 -8 59 1 67 16 16 23 4 23
-38z m256 -77 c-8 -118 -16 -168 -28 -168 -12 0 -7 239 5 258 5 7 13 9 19 6 7
-5 9 -37 4 -96z m-352 -180 c-8 -173 -13 -209 -32 -216 -15 -5 -16 119 -2 238
14 113 20 140 31 140 7 0 8 -59 3 -162z m-119 99 c3 -23 2 -60 -3 -82 l-9 -40
-12 28 c-12 30 -15 129 -5 140 13 12 23 -4 29 -46z m229 34 c7 -10 -22 -37
-30 -28 -9 8 3 37 15 37 5 0 12 -4 15 -9z m-36 -399 c-2 -29 -7 -37 -23 -37
-27 0 -32 47 -9 82 14 23 18 24 26 9 5 -9 8 -33 6 -54z m202 -150 c0 -24 -1
-25 -16 -10 -10 9 -14 24 -10 33 9 23 26 9 26 -23z m42 -97 c2 -11 -1 -22 -7
-25 -5 -3 -11 11 -13 30 -4 37 15 33 20 -5z m112 -357 c17 -23 22 -78 8 -78
-10 0 -42 65 -42 85 0 22 17 18 34 -7z m-1718 -1608 c-14 -44 -14 -44 -15 -12
-1 18 5 66 12 105 l12 72 3 -60 c1 -33 -4 -80 -12 -105z m-66 -46 c0 -32 -4
-44 -12 -42 -16 6 -22 32 -14 64 10 40 26 27 26 -22z m650 -224 c-12 -22 -30
-18 -30 6 0 8 9 14 20 14 18 0 19 -3 10 -20z m-482 -188 c2 -30 0 -52 -7 -56
-6 -4 -11 -1 -11 8 0 8 -7 36 -15 61 -18 51 -12 76 13 52 8 -9 17 -38 20 -65z
m577 -15 c-3 -34 -11 -70 -18 -82 -11 -20 -11 -19 -18 5 -13 44 -9 105 7 128
25 36 37 16 29 -51z m-665 -12 c6 -8 9 -19 5 -25 -10 -17 -32 -11 -38 9 -8 32
12 42 33 16z m814 -24 c9 -14 -4 -41 -20 -41 -8 0 -14 8 -14 18 0 29 22 43 34
23z m-791 -106 c4 -8 2 -17 -3 -20 -6 -4 -10 3 -10 14 0 25 6 27 13 6z m487
-20 c15 -18 9 -50 -10 -50 -10 0 -16 12 -18 33 -3 34 8 41 28 17z m-4450 -55
c0 -14 -49 -44 -58 -35 -4 3 4 15 17 26 26 21 41 24 41 9z m4092 -69 c28 -46
36 -85 18 -96 -5 -3 -10 0 -10 8 0 8 -20 45 -45 82 -44 68 -51 102 -12 68 11
-10 33 -38 49 -62z m31 -160 c21 -8 28 -17 25 -34 -5 -36 -43 -34 -79 4 -67
72 -76 140 -10 76 20 -20 49 -41 64 -46z m997 54 c0 -14 -4 -25 -10 -25 -5 0
-10 11 -10 25 0 14 5 25 10 25 6 0 10 -11 10 -25z m-5387 -95 c-2 -45 -41
-135 -58 -135 -5 0 -11 20 -13 44 -3 34 1 48 17 63 12 10 21 29 21 42 0 26 9
38 24 33 6 -2 10 -23 9 -47z m4305 -13 c49 -52 61 -139 15 -111 -22 13 -39 47
-47 97 -8 42 1 47 32 14z m1045 -76 c3 -35 11 -68 17 -75 10 -8 11 -3 7 27 -6
40 6 49 23 18 13 -26 13 -81 -1 -81 -15 0 -56 -99 -71 -173 -26 -128 -49 -62
-37 104 10 118 39 276 49 258 4 -8 10 -43 13 -78z m-4716 27 c13 -49 3 -69
-25 -52 -21 13 -28 60 -11 80 18 22 24 17 36 -28z m-743 -21 c15 -24 -3 -35
-20 -13 -8 11 -14 24 -14 29 0 13 22 3 34 -16z m4380 -56 c12 -43 -10 -164
-36 -194 l-19 -22 5 28 c6 24 3 27 -18 27 -35 0 -49 32 -50 107 -1 46 3 67 16
79 16 16 18 16 24 1 8 -22 24 -12 24 15 0 19 2 19 22 6 13 -9 27 -30 32 -47z
m1156 -137 c0 -25 30 -61 84 -97 54 -37 31 -111 -97 -326 -46 -77 -97 -170
-112 -208 -84 -205 -201 -409 -228 -400 -7 2 -18 15 -26 29 -13 22 -13 34 -1
82 7 31 11 59 8 62 -3 3 -20 -24 -37 -60 -38 -82 -57 -96 -47 -36 13 85 155
489 205 588 21 41 41 55 41 30 0 -32 -42 -182 -74 -265 -36 -96 -56 -176 -39
-158 6 6 27 54 47 107 21 54 42 100 47 104 13 8 23 35 65 172 19 63 50 144 69
180 19 37 39 90 44 117 12 65 28 105 41 105 5 0 10 -12 10 -26z m-1093 -16
c-3 -7 -5 -2 -5 12 0 14 2 19 5 13 2 -7 2 -19 0 -25z m-3132 -18 c0 -8 -8 -16
-17 -18 -13 -2 -18 3 -18 18 0 15 5 20 18 18 9 -2 17 -10 17 -18z m185 -55
c18 -21 -3 -68 -28 -63 -21 4 -29 57 -10 69 18 12 24 11 38 -6z m2760 -60 c0
-60 -13 -105 -31 -105 -13 0 -8 137 5 159 14 23 26 -1 26 -54z m-165 -61 c-1
-49 -4 -101 -8 -117 -6 -23 -10 -26 -27 -17 -25 13 -32 13 -55 -4 -18 -13 -18
-15 8 -46 31 -36 33 -50 13 -88 -25 -49 -146 -154 -146 -127 0 3 23 49 50 101
52 100 56 127 13 99 -46 -31 -73 4 -32 41 12 10 34 44 49 75 16 31 39 63 53
72 13 8 32 36 41 62 27 70 41 52 41 -51z m352 -26 c-4 -46 -18 -125 -31 -175
-26 -95 -86 -227 -93 -206 -2 6 14 72 37 145 23 73 45 170 50 215 9 87 14 103
32 103 8 0 9 -26 5 -82z m1369 25 c18 -20 51 -71 73 -113 22 -41 54 -93 70
-114 17 -21 31 -45 31 -53 0 -7 32 -44 71 -81 38 -37 76 -78 82 -92 7 -14 34
-35 64 -50 29 -14 52 -28 53 -33 0 -4 -29 -56 -64 -115 -35 -59 -94 -162 -132
-230 -38 -67 -95 -157 -126 -200 -106 -143 -112 -153 -114 -193 -1 -27 -14
-56 -43 -96 -89 -126 -96 -142 -96 -218 0 -66 13 -357 35 -791 7 -132 21 -256
45 -400 45 -272 55 -380 55 -586 l0 -170 -132 -176 -132 -175 -54 114 c-29 63
-68 157 -87 209 -19 52 -50 136 -70 185 -20 50 -56 157 -81 238 -47 157 -79
230 -150 339 -55 86 -74 123 -74 145 0 10 -13 37 -29 60 -45 67 -88 264 -70
325 5 17 21 45 37 62 23 25 31 47 41 109 17 104 69 306 131 507 27 91 71 242
95 337 68 260 164 507 319 823 47 95 86 185 86 200 0 14 9 39 20 55 11 17 20
44 20 60 0 44 15 63 29 39 8 -16 10 -11 11 29 0 51 16 87 39 87 7 0 28 -17 47
-37z m-1666 0 c0 -5 -4 -14 -9 -22 -11 -17 -32 -5 -24 14 5 15 33 21 33 8z
m150 -15 c0 -22 -24 -78 -33 -78 -9 0 -1 65 9 82 8 12 24 9 24 -4z m-80 -104
c0 -8 -4 -14 -10 -14 -5 0 -10 9 -10 21 0 11 5 17 10 14 6 -3 10 -13 10 -21z
m100 -98 c-17 -22 -32 -9 -19 16 8 14 14 17 22 9 7 -7 6 -15 -3 -25z m-80 -25
c0 -21 -13 -41 -26 -41 -17 0 -18 22 -2 38 14 14 28 16 28 3z m-481 -113 c-15
-29 -60 -78 -72 -78 -11 0 16 44 46 78 11 12 24 22 29 22 5 0 3 -10 -3 -22z
m1727 -52 c-18 -43 -41 -49 -31 -8 3 15 14 38 23 52 23 35 28 5 8 -44z m-1316
-47 c-12 -22 -37 -35 -47 -25 -9 8 27 46 44 46 11 0 11 -4 3 -21z m-310 -48
c0 -28 -251 -293 -258 -273 -10 30 205 282 241 282 9 0 17 -4 17 -9z m-359
-49 c-16 -31 -38 -45 -47 -31 -4 7 2 20 16 31 29 23 44 23 31 0z m-241 -39 c0
-10 -42 -53 -52 -53 -13 0 -9 22 9 42 16 18 43 25 43 11z m350 -11 c0 -9 -36
-44 -57 -56 -23 -13 -14 14 13 39 27 25 44 32 44 17z m-298 -27 c0 -14 -29
-31 -38 -22 -9 8 16 39 28 35 5 -2 10 -8 10 -13z m-355 -62 c6 -17 -135 -143
-160 -143 -15 0 68 109 104 135 33 25 50 28 56 8z m153 -92 c0 -33 -161 -204
-176 -188 -10 10 43 83 104 144 50 51 72 64 72 44z m638 -3 c-5 -15 -50 -39
-58 -32 -6 7 38 44 52 44 5 0 8 -6 6 -12z m-1918 -40 c0 -9 -4 -20 -10 -23 -6
-4 -10 9 -10 32 0 28 3 34 10 23 5 -8 10 -23 10 -32z m150 -24 c0 -8 10 -14
24 -14 31 0 42 -16 20 -28 -27 -15 -9 -57 49 -115 29 -29 67 -60 85 -69 40
-21 42 -49 6 -91 -17 -20 -24 -39 -21 -54 5 -27 -1 -29 -18 -6 -12 16 -14 16
-39 -1 -45 -29 -50 -13 -12 34 20 25 36 50 36 56 0 5 -16 26 -36 45 l-35 34
10 -28 c17 -43 14 -44 -25 -6 -43 41 -64 85 -64 136 0 21 -5 55 -11 76 -5 20
-7 42 -4 47 8 13 35 1 35 -16z m-1659 -77 c-13 -13 -15 50 -3 80 5 13 8 5 10
-26 2 -24 -2 -49 -7 -54z m3257 56 c-2 -10 -10 -18 -18 -18 -8 0 -16 8 -18 18
-2 12 3 17 18 17 15 0 20 -5 18 -17z m-3308 -18 c0 -14 -4 -25 -10 -25 -5 0
-10 11 -10 25 0 14 5 25 10 25 6 0 10 -11 10 -25z m3220 -25 c0 -11 -7 -20
-15 -20 -17 0 -18 2 -9 24 9 23 24 20 24 -4z m-635 -10 c27 -30 12 -34 -15 -5
-13 14 -19 25 -13 25 5 0 18 -9 28 -20z m-1157 -2 c23 -23 14 -55 -18 -66 -19
-7 -34 -23 -43 -44 -8 -18 -22 -39 -31 -47 -15 -13 -19 -13 -27 0 -19 31 -6
137 19 147 9 3 22 -4 33 -16 24 -31 39 -27 39 8 0 32 9 37 28 18z m-1661 -59
c25 -62 41 -179 25 -179 -5 0 -14 12 -20 28 -5 15 -21 39 -35 55 l-26 27 24 0
c30 0 39 14 22 32 -21 21 -37 54 -37 78 0 37 24 16 47 -41z m2739 17 c-8 -33
-46 -56 -46 -28 0 19 38 67 47 58 3 -3 3 -16 -1 -30z m1135 -28 c-32 -29 -51
-30 -51 -2 0 16 59 46 74 37 5 -4 -5 -19 -23 -35z m-2047 -30 c7 -12 6 -21 -3
-32 -21 -25 -31 -19 -31 20 0 37 14 42 34 12z m58 -106 c9 -18 8 -29 -5 -57
-15 -32 -9 -54 11 -41 12 7 54 -23 47 -34 -3 -5 -21 -6 -40 -3 -26 4 -36 2
-41 -11 -3 -9 -12 -16 -20 -16 -10 0 -14 14 -14 50 0 47 -2 50 -46 80 -54 38
-53 56 4 52 45 -4 62 13 79 73 7 27 8 26 11 -20 1 -27 8 -60 14 -73z m-1602
26 c0 -10 -5 -18 -10 -18 -15 0 -23 27 -16 47 6 15 8 15 16 3 6 -8 10 -23 10
-32z m560 38 c0 -3 -17 -25 -38 -49 -21 -24 -44 -58 -51 -75 -12 -28 -11 -35
9 -68 40 -64 26 -195 -16 -152 -12 12 -16 34 -15 84 0 44 -3 71 -12 76 -15 9
-13 103 3 123 6 7 24 17 40 20 15 3 36 15 46 26 16 17 34 25 34 15z m1609 -35
c-44 -79 -116 -136 -102 -81 5 17 108 120 121 120 2 0 -7 -18 -19 -39z m191
15 c0 -7 -6 -19 -14 -25 -19 -16 -32 5 -16 24 16 19 30 19 30 1z m-1150 -18
c-1 -19 -21 -42 -55 -64 l-30 -19 25 34 c14 18 29 39 35 47 12 17 25 18 25 2z
m717 -25 c-3 -10 -5 -4 -5 12 0 17 2 24 5 18 2 -7 2 -21 0 -30z m-2299 -16 c2
-12 -3 -17 -17 -17 -12 0 -21 6 -21 13 0 31 32 34 38 4z m2972 -1 c-19 -19
-131 -86 -143 -86 -4 0 -7 7 -5 17 3 19 113 83 143 83 17 0 17 -2 5 -14z
m-2228 -19 c10 -15 10 -19 -1 -36 -7 -10 -13 -11 -29 -2 -25 13 -44 45 -34 55
9 10 55 -3 64 -17z m1028 -27 c0 -40 -15 -54 -27 -24 -5 15 11 64 22 64 3 0 5
-18 5 -40z m1870 33 c0 -10 -32 -43 -42 -43 -12 0 -10 24 4 38 13 13 38 16 38
5z m-3134 -44 c11 -18 -13 -34 -31 -19 -8 7 -15 16 -15 21 0 13 38 11 46 -2z
m-381 -29 c0 -8 -8 -16 -17 -18 -13 -2 -18 3 -18 18 0 15 5 20 18 18 9 -2 17
-10 17 -18z m2260 9 c11 -16 -4 -59 -20 -59 -10 0 -15 10 -15 28 0 39 20 56
35 31z m-765 -24 c0 -26 -14 -33 -25 -15 -9 14 1 40 15 40 5 0 10 -11 10 -25z
m-69 -58 c-8 -8 -11 -3 -11 19 1 25 2 27 11 11 8 -14 8 -22 0 -30z m-971 -12
c0 -6 -6 -20 -14 -31 -14 -19 -15 -19 -22 1 -4 11 -8 22 -9 25 -2 3 2 16 7 30
9 24 10 24 24 6 8 -11 14 -25 14 -31z m926 -1 c16 -39 18 -90 4 -99 -6 -3 -19
-4 -30 0 -24 8 -38 85 -21 121 13 30 28 23 47 -22z m325 -27 c-6 -15 -15 -27
-20 -27 -20 0 -22 22 -6 47 21 32 40 18 26 -20z m167 3 c-5 -37 -2 -37 24 -5
23 30 48 33 48 6 0 -42 -69 -77 -97 -49 -13 14 -13 19 1 47 21 39 30 40 24 1z
m156 11 c7 -10 -18 -34 -27 -25 -7 8 3 34 13 34 5 0 11 -4 14 -9z m96 -5 c0
-18 -37 -63 -45 -54 -8 8 22 68 35 68 6 0 10 -6 10 -14z m3890 -56 c-6 -11
-15 -20 -20 -20 -16 0 -11 44 8 70 l17 25 3 -27 c2 -15 -2 -36 -8 -48z m-4942
18 c20 -20 15 -112 -7 -139 l-19 -24 -11 28 c-22 57 -10 147 19 147 3 0 11 -5
18 -12z m136 -10 c18 -25 22 -88 6 -88 -12 0 -24 27 -35 78 -8 38 6 43 29 10z
m-460 -144 c3 -9 2 -23 -3 -32 -8 -15 -11 -14 -19 8 -5 14 -8 28 -5 33 7 12
21 8 27 -9z m894 -26 c-28 -36 -58 -49 -58 -24 0 17 46 56 68 56 11 0 8 -8
-10 -32z m3039 -61 c-39 -69 -67 -100 -67 -75 0 15 51 100 78 131 29 33 24 8
-11 -56z m-2849 20 c3 -14 -4 -17 -32 -17 -39 0 -47 13 -18 29 24 15 46 9 50
-12z m322 3 c25 -13 15 -40 -15 -40 -27 0 -39 14 -31 35 6 18 20 19 46 5z
m-730 -46 c0 -16 -8 -28 -25 -36 -38 -17 -49 1 -25 40 22 36 50 34 50 -4z
m560 2 c0 -22 -42 -48 -55 -35 -7 7 -3 16 14 30 28 23 41 24 41 5z m-300 -15
c0 -5 -6 -14 -14 -20 -16 -13 -32 2 -21 19 8 12 35 13 35 1z m-152 -55 c-13
-30 -36 -40 -54 -25 -12 9 -8 15 18 29 45 24 49 24 36 -4z m-258 -6 c0 -5 -9
-10 -21 -10 -11 0 -17 5 -14 10 3 6 13 10 21 10 8 0 14 -4 14 -10z m808 -57
c2 -9 -8 -13 -35 -13 -36 1 -37 1 -18 16 22 17 46 15 53 -3z m-1568 -20 c0
-20 -24 -11 -28 10 -2 12 1 15 12 11 9 -3 16 -13 16 -21z m1115 -13 c-7 -11
-71 -30 -104 -30 -37 0 -14 17 39 28 61 13 72 14 65 2z m485 -153 c0 -7 -5
-18 -12 -25 -18 -18 -38 -15 -38 6 0 10 3 22 7 25 11 12 43 7 43 -6z m-1862
-67 c12 -18 22 -40 22 -49 -1 -20 -70 56 -70 76 0 23 23 10 48 -27z m942 35
c0 -8 -58 -35 -75 -35 -18 0 -20 26 -2 33 16 7 77 8 77 2z m-260 -69 c0 -16
-18 -31 -27 -22 -8 8 5 36 17 36 5 0 10 -6 10 -14z m530 -151 c-14 -14 -54
-39 -90 -56 -143 -66 -175 -86 -228 -137 -62 -60 -80 -62 -33 -3 55 69 137
137 192 158 30 12 81 32 114 46 33 14 62 24 64 21 2 -2 -6 -16 -19 -29z m4260
-20 c0 -8 -4 -17 -10 -20 -6 -4 -10 5 -10 20 0 15 4 24 10 20 6 -3 10 -12 10
-20z m-4250 -203 c0 -13 -79 -86 -86 -80 -9 9 13 44 42 67 28 22 44 27 44 13z
m-549 -205 c-16 -28 -97 -90 -112 -85 -15 5 45 75 86 99 35 22 43 17 26 -14z
m587 11 c-11 -32 -271 -238 -284 -225 -10 9 122 134 199 188 71 50 92 59 85
37z m152 -82 c0 -30 -6 -37 -42 -59 -24 -14 -105 -70 -181 -125 -153 -109
-197 -137 -197 -125 0 4 65 57 144 117 79 59 173 135 207 167 35 32 65 58 67
59 1 0 2 -15 2 -34z m-110 5 c0 -15 -78 -80 -105 -87 -60 -15 -38 23 40 67 53
31 65 34 65 20z m406 -117 c-9 -23 -12 -17 -19 36 l-6 45 16 -32 c9 -17 13
-39 9 -49z m-1046 35 c-12 -22 -37 -35 -47 -25 -9 8 27 46 44 46 11 0 11 -4 3
-21z m1113 -224 c1 -22 -3 -30 -17 -33 -28 -6 -36 15 -35 103 l0 80 25 -60
c13 -33 26 -73 27 -90z m-303 116 c0 -17 -53 -52 -63 -42 -15 15 11 51 38 51
14 0 25 -4 25 -9z m4370 -42 c9 -32 8 -51 -5 -96 -19 -64 -108 -239 -164 -322
-38 -56 -71 -91 -71 -76 0 11 86 180 125 245 20 34 39 85 49 135 33 164 46
188 66 114z m-5027 -160 c-20 -30 -24 -44 -15 -47 24 -8 -9 -32 -45 -32 -38 0
-53 21 -32 47 15 18 112 83 117 78 2 -2 -9 -22 -25 -46z m2269 -42 c16 -25 34
-75 42 -118 8 -41 27 -112 41 -159 35 -113 43 -232 18 -280 -10 -19 -24 -35
-32 -35 -8 0 -33 31 -55 68 -50 84 -176 217 -232 245 -43 22 -69 53 -79 95 -6
22 -2 28 29 42 20 10 80 55 133 100 54 46 100 84 103 84 3 1 17 -19 32 -42z
m-1064 1 c13 -13 17 -78 4 -78 -8 0 -32 58 -32 78 0 15 13 15 28 0z m1242 -12
c0 -16 -18 -31 -27 -22 -8 8 5 36 17 36 5 0 10 -6 10 -14z m-2374 -234 c-8
-13 -136 -75 -142 -69 -6 6 49 41 97 61 39 17 52 20 45 8z m588 -34 c15 -22
44 -142 66 -273 6 -38 23 -91 38 -117 31 -56 25 -77 -27 -91 -47 -12 -127 -5
-123 11 3 18 -10 15 -61 -13 l-45 -26 -21 27 c-12 15 -21 30 -21 33 0 10 67
72 138 126 56 43 74 65 55 65 -10 0 -246 -160 -275 -188 -16 -14 -28 -34 -28
-44 0 -11 -5 -15 -14 -12 -16 6 -79 -24 -149 -72 -58 -40 -80 -42 -102 -12
-15 22 -13 25 31 65 25 23 43 47 39 53 -11 18 -53 11 -82 -15 -23 -20 -25 -24
-10 -25 21 0 18 -19 -5 -33 -11 -7 -28 -4 -60 11 -24 12 -60 22 -79 22 l-34 1
39 19 c22 11 49 28 60 38 12 11 36 25 55 32 18 7 90 55 160 105 69 50 147 103
171 118 25 14 91 69 148 122 56 52 106 95 111 95 6 0 17 -10 25 -22z m-374
-67 c0 -8 -81 -73 -119 -96 -32 -19 4 18 57 61 62 48 62 48 62 35z m4360 -160
c0 -24 -283 -421 -300 -421 -4 0 -6 8 -3 19 3 11 -5 28 -21 44 -26 26 -32 50
-20 81 9 24 20 19 43 -20 l22 -37 25 24 c14 13 62 75 105 137 74 105 136 182
145 182 2 0 4 -4 4 -9z m-4860 -96 c0 -2 -14 -12 -31 -20 -40 -21 -63 -13 -24
8 29 16 55 22 55 12z m1107 -89 c-4 -9 -13 -13 -22 -10 -18 7 -20 31 -2 37 17
6 31 -9 24 -27z m-957 4 c-27 -21 -143 -70 -163 -69 -13 1 162 89 178 89 6 0
-1 -9 -15 -20z m-1470 -122 c-31 -26 -177 -97 -207 -100 -68 -9 21 53 142 99
77 28 98 29 65 1z m1936 -19 c9 -15 -40 -63 -86 -84 -40 -18 -103 -15 -116 6
-4 6 8 25 25 42 28 29 31 30 31 11 0 -11 3 -24 7 -27 8 -9 53 20 71 45 14 20
57 24 68 7z m-1962 -90 c-25 -28 -82 -61 -96 -57 -14 5 30 50 77 79 35 22 46
8 19 -22z m1406 -4 c0 -6 -90 -45 -104 -45 -18 1 67 50 87 50 9 0 17 -2 17 -5z
m475 -60 c25 -25 30 -41 19 -69 -10 -25 -22 -19 -50 24 -40 61 -17 94 31 45z
m-1975 -62 c-1 -30 -38 -103 -53 -103 -8 0 -19 12 -25 26 -14 29 -4 54 30 78
29 21 48 20 48 -1z m3911 -80 c-10 -21 -26 -47 -35 -58 -14 -19 -15 -19 -16
-2 0 19 60 110 67 103 3 -2 -5 -21 -16 -43z m-2071 -251 c0 -16 -25 -32 -49
-32 l-26 1 24 19 c24 20 51 27 51 12z m-320 -402 c0 -12 -33 -30 -54 -30 -26
0 -18 17 12 28 36 14 42 14 42 2z m-187 -47 c-7 -2 -21 -2 -30 0 -10 3 -4 5
12 5 17 0 24 -2 18 -5z"/>
<path d="M6380 9814 c0 -31 21 -85 31 -78 16 9 10 51 -11 75 -19 23 -19 23
-20 3z"/>
<path d="M6347 9764 c-14 -14 -7 -35 11 -32 9 2 17 10 17 17 0 16 -18 25 -28
15z"/>
<path d="M2677 1764 c-16 -9 -26 -18 -23 -21 7 -8 66 17 66 28 0 12 -10 11
-43 -7z"/>
<path d="M2478 1573 c-260 -188 -264 -191 -241 -214 18 -18 82 16 94 50 10 27
84 89 246 204 49 35 66 57 44 57 -5 0 -69 -43 -143 -97z"/>
<path d="M3511 12769 c-73 -14 -61 -22 22 -15 90 7 141 26 67 25 -25 -1 -65
-5 -89 -10z"/>
<path d="M3128 12643 c18 -2 45 -2 60 0 15 2 0 4 -33 4 -33 0 -45 -2 -27 -4z"/>
<path d="M3270 12645 c0 -14 69 -45 101 -45 20 0 58 -7 85 -15 62 -19 84 -19
84 0 0 21 -35 33 -151 50 -109 17 -119 17 -119 10z"/>
<path d="M1253 12438 c-47 -52 -49 -93 -3 -68 23 13 40 41 40 69 0 27 -12 26
-37 -1z"/>
<path d="M3 12015 c0 -22 2 -30 4 -17 2 12 2 30 0 40 -3 9 -5 -1 -4 -23z"/>
<path d="M6500 11374 c0 -13 54 -104 62 -104 16 0 7 27 -23 68 -30 40 -39 49
-39 36z"/>
<path d="M3774 10420 c-44 -22 -136 -110 -115 -110 18 0 125 67 151 95 29 31
12 38 -36 15z"/>
<path d="M1940 10058 c-85 -22 -111 -38 -62 -38 33 0 103 24 137 47 25 17 17
16 -75 -9z"/>
<path d="M1117 9992 c-28 -29 -33 -42 -18 -42 13 0 71 50 71 61 0 18 -27 8
-53 -19z"/>
<path d="M820 9970 c-21 -41 -26 -80 -11 -80 11 0 21 25 21 54 0 12 7 32 16
44 8 12 10 22 5 22 -6 0 -20 -18 -31 -40z"/>
<path d="M4343 9985 c-3 -9 -3 -18 0 -21 9 -9 27 6 27 22 0 19 -19 18 -27 -1z"/>
<path d="M996 9874 c-18 -18 -20 -30 -6 -39 10 -6 50 29 50 45 0 15 -27 12
-44 -6z"/>
<path d="M5152 9774 c-13 -9 -22 -25 -22 -42 0 -42 25 -126 59 -197 16 -36 33
-82 36 -103 13 -77 15 -84 31 -78 8 3 29 -1 45 -10 27 -14 41 -36 77 -124 9
-22 11 -18 11 28 1 52 -1 56 -47 101 l-49 46 -38 160 c-37 160 -61 235 -74
235 -4 0 -17 -7 -29 -16z"/>
<path d="M5250 9760 c-13 -8 -13 -13 0 -37 19 -34 50 -43 50 -15 0 31 -32 64
-50 52z"/>
<path d="M4363 9743 c-21 -7 -15 -33 7 -33 11 0 20 6 20 14 0 18 -11 25 -27
19z"/>
<path d="M4350 9651 c0 -30 11 -51 26 -51 17 0 18 24 4 51 -14 24 -30 25 -30
0z"/>
<path d="M716 9598 c-11 -44 -18 -324 -7 -307 10 16 28 329 19 329 -3 0 -8
-10 -12 -22z"/>
<path d="M5061 9529 c-1 -14 6 -34 14 -45 19 -25 19 -1 0 41 -13 30 -13 30
-14 4z"/>
<path d="M4344 9495 c-7 -27 8 -81 22 -78 13 3 17 30 9 69 -7 40 -22 44 -31 9z"/>
<path d="M5156 9430 c3 -41 12 -88 19 -105 l13 -30 1 30 c0 17 -9 64 -19 105
l-19 75 5 -75z"/>
<path d="M4572 9455 c0 -16 2 -22 5 -12 2 9 2 23 0 30 -3 6 -5 -1 -5 -18z"/>
<path d="M5343 9424 c-8 -21 13 -42 28 -27 13 13 5 43 -11 43 -6 0 -13 -7 -17
-16z"/>
<path d="M6045 9391 c3 -23 15 -59 26 -80 l20 -36 -5 37 c-2 20 -14 56 -25 80
l-21 43 5 -44z"/>
<path d="M4940 9302 c0 -11 -10 -32 -22 -48 -20 -25 -23 -40 -23 -119 0 -77 4
-96 24 -132 27 -46 58 -60 47 -20 -7 26 -32 165 -40 220 l-5 38 29 -21 c16
-12 32 -25 35 -30 4 -6 10 -10 16 -10 16 0 10 21 -17 52 -16 19 -24 40 -22 56
2 14 -3 27 -9 29 -8 3 -13 -4 -13 -15z"/>
<path d="M4552 9285 c0 -16 2 -22 5 -12 2 9 2 23 0 30 -3 6 -5 -1 -5 -18z"/>
<path d="M4703 9263 c-12 -43 -9 -181 4 -194 21 -21 36 28 28 90 -4 31 -7 73
-8 94 -2 44 -14 48 -24 10z"/>
<path d="M5210 9234 c0 -25 34 -144 41 -144 14 0 11 20 -12 88 -18 54 -29 75
-29 56z"/>
<path d="M4420 9189 c0 -18 2 -19 15 -9 8 7 15 16 15 21 0 5 -7 9 -15 9 -9 0
-15 -9 -15 -21z"/>
<path d="M6190 9157 c0 -30 4 -46 10 -42 13 8 13 55 0 75 -7 11 -10 2 -10 -33z"/>
<path d="M5059 9148 c-7 -13 -15 -57 -17 -100 -4 -69 -3 -76 14 -75 14 2 21
-11 32 -55 8 -32 18 -58 22 -58 5 0 7 8 5 18 -16 78 -35 245 -30 261 9 28 -12
35 -26 9z"/>
<path d="M6046 9145 c-11 -29 -6 -91 8 -111 13 -17 15 -17 21 -3 10 26 1 122
-11 126 -6 2 -14 -3 -18 -12z"/>
<path d="M4483 9114 c-6 -17 42 -73 53 -61 10 9 -15 65 -32 71 -8 3 -17 -1
-21 -10z"/>
<path d="M4570 9082 c0 -24 18 -38 31 -25 6 6 2 16 -11 28 -19 18 -20 18 -20
-3z"/>
<path d="M4297 9074 c-10 -11 -8 -54 2 -54 14 0 25 40 14 51 -5 5 -12 6 -16 3z"/>
<path d="M5263 8915 c3 -94 9 -141 22 -170 10 -22 25 -65 34 -95 l18 -55 46 1
c26 0 53 6 59 12 9 9 1 12 -34 12 -54 0 -58 6 -58 95 0 35 -5 76 -11 92 -7 15
-27 75 -46 133 l-34 105 4 -130z"/>
<path d="M4380 9011 c0 -11 10 -27 22 -35 24 -17 108 -22 108 -7 0 10 -101 61
-119 61 -6 0 -11 -9 -11 -19z"/>
<path d="M5424 8930 c1 -62 8 -114 15 -125 10 -16 11 -4 6 70 -9 142 -25 183
-21 55z"/>
<path d="M6216 9011 c-5 -7 -11 -45 -14 -84 -4 -55 -2 -69 9 -65 7 2 17 19 21
36 10 39 -3 134 -16 113z"/>
<path d="M4660 8985 c0 -17 22 -29 41 -23 8 3 6 9 -5 21 -22 21 -36 22 -36 2z"/>
<path d="M694 8855 c0 -66 1 -92 3 -57 2 34 2 88 0 120 -2 31 -3 3 -3 -63z"/>
<path d="M4657 8903 c-9 -9 22 -43 40 -43 16 0 17 22 1 38 -13 13 -31 16 -41
5z"/>
<path d="M4878 8871 c-16 -35 -14 -61 3 -61 14 0 21 24 17 62 l-4 33 -16 -34z"/>
<path d="M4410 8860 c0 -5 9 -10 20 -10 11 0 20 5 20 10 0 6 -9 10 -20 10 -11
0 -20 -4 -20 -10z"/>
<path d="M5131 8803 c0 -15 8 -53 19 -83 l18 -55 1 40 c1 46 -15 111 -29 120
-6 4 -10 -6 -9 -22z"/>
<path d="M6081 8806 c-15 -18 -26 -76 -14 -76 5 0 14 5 20 11 5 5 25 12 44 14
33 5 89 48 77 61 -4 3 -20 -2 -37 -12 -27 -16 -31 -16 -54 -1 -21 13 -27 14
-36 3z"/>
<path d="M4957 8754 c-10 -11 -8 -77 3 -94 9 -13 11 -13 20 0 19 26 -3 113
-23 94z"/>
<path d="M5192 8600 c0 -14 2 -19 5 -12 2 6 2 18 0 25 -3 6 -5 1 -5 -13z"/>
<path d="M4994 8596 c-3 -9 4 -31 16 -51 19 -30 20 -36 6 -40 -9 -3 -23 -7
-32 -10 -12 -4 -14 -14 -9 -52 9 -66 42 -190 60 -222 l14 -26 0 25 c1 14 -6
50 -14 80 -21 78 -19 143 5 182 11 18 20 45 20 61 0 18 5 27 16 27 9 0 14 7
12 18 -4 23 -85 31 -94 8z"/>
<path d="M5134 8514 c-15 -60 16 -300 36 -278 7 8 30 166 30 208 0 12 -5 16
-14 13 -17 -7 -26 13 -26 54 0 36 -17 38 -26 3z"/>
<path d="M5782 8528 c-5 -7 -13 -24 -16 -38 l-7 -25 20 24 c12 13 21 29 21 37
0 17 -5 18 -18 2z"/>
<path d="M5538 8493 c-24 -28 -58 -100 -58 -124 l0 -22 25 23 c35 33 69 105
58 125 -8 14 -11 14 -25 -2z"/>
<path d="M692 8384 c-6 -16 -13 -39 -17 -50 -3 -12 -27 -46 -54 -77 -72 -82
-92 -114 -93 -146 -1 -37 6 -48 52 -71 21 -11 54 -38 71 -60 18 -22 44 -43 58
-47 36 -8 90 -36 170 -88 38 -24 93 -54 124 -65 30 -11 61 -28 68 -36 22 -27
66 -44 140 -54 40 -6 75 -13 78 -15 12 -12 -12 -13 -103 -4 -54 5 -100 8 -103
5 -2 -2 2 -44 11 -92 19 -109 14 -119 -59 -111 -77 8 -154 42 -222 97 -34 27
-65 50 -68 50 -9 0 5 -71 22 -106 27 -61 131 -93 303 -94 41 -1 95 -5 118 -9
34 -7 85 -1 223 24 99 18 186 39 194 45 39 33 1 95 -77 127 l-43 18 50 5 c61
6 70 27 23 54 -18 11 -47 31 -64 46 -19 16 -59 34 -99 44 -102 26 -302 130
-390 204 -16 14 -38 37 -47 53 -9 15 -33 35 -52 44 -19 9 -42 28 -51 41 -16
25 -59 48 -106 58 -34 7 -42 37 -34 125 4 36 3 77 -2 90 l-9 24 -12 -29z m123
-274 c-3 -5 -13 -10 -21 -10 -8 0 -14 5 -14 10 0 6 9 10 21 10 11 0 17 -4 14
-10z m-95 -61 c0 -17 -20 -29 -20 -11 0 4 -3 18 -7 32 -6 22 -5 24 10 11 9 -7
17 -22 17 -32z m690 -558 c0 -20 -104 -35 -176 -26 -58 7 -71 21 -26 28 55 8
202 7 202 -2z"/>
<path d="M6293 8369 c-29 -11 -53 -26 -53 -34 0 -19 -67 -75 -90 -75 -26 0
-105 -84 -132 -139 -19 -40 -20 -47 -7 -70 21 -37 39 -32 54 14 18 52 140 169
224 214 58 31 68 33 138 29 74 -3 77 -5 110 -43 49 -57 93 -201 100 -330 7
-118 -10 -262 -38 -325 -21 -46 -18 -95 4 -88 19 6 85 140 104 209 12 48 16
108 17 239 0 263 -26 370 -90 370 -14 0 -41 12 -59 26 -31 23 -36 24 -55 11
-19 -13 -29 -13 -78 -1 -74 17 -87 17 -149 -7z m351 -82 c15 -24 -3 -35 -20
-13 -8 11 -14 24 -14 29 0 13 22 3 34 -16z"/>
<path d="M3032 8347 c-24 -26 -30 -50 -17 -79 10 -24 -20 -24 -85 2 l-50 20
-17 -35 c-16 -33 -56 -55 -102 -55 -8 0 -29 -15 -46 -34 -35 -38 -138 -76
-209 -76 -40 0 -86 -21 -86 -41 0 -5 9 -9 19 -9 32 0 51 -11 51 -30 0 -28 -26
-43 -64 -37 -28 5 -38 1 -62 -25 -16 -16 -58 -45 -94 -64 -36 -19 -73 -40 -82
-46 -14 -10 -24 -10 -50 1 -46 19 -102 25 -126 12 -40 -22 -32 -91 11 -91 28
0 52 -24 42 -41 -10 -15 -81 -5 -127 16 -18 9 -41 29 -51 43 -9 15 -29 43 -43
62 -14 20 -23 43 -20 54 3 10 -4 30 -14 45 -10 14 -26 61 -35 104 -18 85 -41
108 -29 30 14 -100 64 -276 91 -321 15 -26 33 -59 40 -74 14 -33 43 -36 61 -7
12 19 19 20 73 14 49 -6 64 -4 79 10 13 12 44 18 102 22 95 6 112 13 130 50 9
17 27 30 53 38 61 18 219 95 341 165 60 35 127 74 150 87 22 12 74 31 115 42
41 10 93 28 117 41 27 14 52 20 70 17 17 -3 50 5 94 24 65 29 118 38 118 20 0
-5 -7 -11 -15 -15 -24 -9 -18 -36 9 -36 13 0 85 16 160 35 130 33 205 42 240
29 26 -10 18 -27 -9 -20 -35 9 -31 -5 11 -33 43 -30 138 -40 184 -21 50 21 35
47 -47 89 -31 15 -42 28 -45 47 -4 31 -46 50 -136 61 -53 6 -54 6 -47 -17 6
-20 5 -22 -11 -15 -60 24 -105 29 -404 45 -96 5 -184 12 -195 15 -14 4 -28 -2
-43 -18z"/>
<path d="M5250 8346 c0 -22 3 -27 11 -19 8 8 8 16 0 30 -9 16 -10 14 -11 -11z"/>
<path d="M5524 8325 c-5 -22 -12 -25 -49 -25 -40 0 -44 -2 -53 -32 -6 -18 -13
-51 -17 -73 -4 -22 -14 -48 -23 -58 -10 -11 -24 -40 -32 -65 -11 -35 -20 -47
-35 -47 -17 0 -20 6 -17 39 2 21 14 80 27 132 23 98 21 119 -8 60 -27 -57 -45
-144 -57 -266 -14 -150 -28 -222 -46 -236 -8 -7 -19 -41 -24 -75 -11 -71 -40
-400 -40 -439 1 -48 20 5 40 109 10 54 28 116 39 137 13 24 21 57 21 87 0 43
2 48 18 42 39 -16 49 -16 56 1 4 10 0 24 -9 34 -20 22 -20 129 1 200 9 30 18
72 21 93 3 22 11 37 19 37 22 0 17 -76 -11 -170 -27 -89 -33 -129 -14 -97 5 9
21 17 34 17 14 0 35 10 46 21 20 20 20 23 5 31 -9 5 -16 21 -16 35 0 26 1 26
15 7 15 -19 15 -19 30 0 16 21 21 96 6 96 -5 0 -11 -6 -14 -12 -3 -10 -8 -10
-17 -2 -18 17 -24 87 -10 128 9 30 16 36 39 36 55 0 121 110 121 201 0 68 -33
106 -46 54z m-36 -139 c2 -9 -4 -29 -13 -43 -14 -20 -19 -23 -26 -12 -13 20
-11 53 3 67 16 16 32 10 36 -12z m-98 -411 c0 -8 -6 -15 -14 -15 -8 0 -16 7
-20 15 -4 10 1 15 14 15 11 0 20 -7 20 -15z"/>
<path d="M5681 8331 c-14 -26 10 -48 29 -26 13 16 7 45 -9 45 -6 0 -15 -9 -20
-19z"/>
<path d="M2258 8193 c-34 -38 -58 -75 -58 -91 0 -19 57 26 81 64 34 56 20 73
-23 27z"/>
<path d="M5190 8185 c28 -16 60 -19 60 -6 0 12 -26 21 -58 21 l-27 -1 25 -14z"/>
<path d="M5156 8115 c-3 -8 -3 -21 0 -28 3 -8 -9 -47 -25 -88 -17 -42 -33 -95
-37 -120 -6 -40 -5 -42 8 -25 20 26 31 8 39 -64 l5 -55 24 50 c21 43 25 68 28
176 3 82 0 134 -7 148 -14 25 -27 27 -35 6z"/>
<path d="M2146 8094 c-9 -24 -7 -28 9 -14 17 14 20 30 6 30 -5 0 -12 -7 -15
-16z"/>
<path d="M5043 8045 c0 -27 2 -38 4 -22 2 15 2 37 0 50 -2 12 -4 0 -4 -28z"/>
<path d="M1610 8059 c0 -25 17 -59 30 -59 13 0 13 24 -2 55 -14 30 -28 33 -28
4z"/>
<path d="M6002 7960 c0 -14 2 -19 5 -12 2 6 2 18 0 25 -3 6 -5 1 -5 -13z"/>
<path d="M1587 7953 c-16 -15 -5 -74 26 -134 36 -70 52 -82 61 -45 7 29 -3
144 -16 169 -9 17 -58 24 -71 10z"/>
<path d="M600 7901 c0 -12 26 -32 33 -25 9 10 -4 34 -19 34 -8 0 -14 -4 -14
-9z"/>
<path d="M4997 7831 c-11 -97 -9 -331 3 -331 5 0 13 12 17 28 10 33 6 249 -5
317 l-8 50 -7 -64z"/>
<path d="M2760 7860 c-47 -11 -102 -22 -123 -26 -24 -4 -46 -17 -63 -37 -29
-34 -75 -124 -93 -179 -7 -21 -13 -39 -14 -40 -1 -1 -83 -4 -182 -7 l-180 -6
3 -27 c3 -33 -2 -34 -35 -8 -20 15 -29 17 -39 9 -17 -14 -7 -32 12 -25 8 3 17
-1 20 -8 3 -8 25 -21 50 -31 24 -9 49 -25 54 -36 6 -10 19 -19 30 -19 26 0
146 44 233 86 62 30 73 32 86 19 13 -12 11 -21 -12 -65 -32 -62 -33 -69 -7
-45 22 20 46 18 164 -14 82 -22 210 -28 221 -11 9 15 -15 46 -59 74 -50 33
-70 33 -108 1 -21 -18 -37 -24 -52 -19 -32 9 -79 38 -83 50 -8 23 86 122 139
147 57 27 183 44 238 32 29 -6 30 -8 30 -64 0 -48 5 -65 30 -99 37 -51 105
-92 154 -92 47 0 88 21 151 77 52 47 50 47 138 27 43 -10 32 10 -30 53 -182
127 -399 184 -633 167 l-115 -9 -3 -28 c-2 -16 -11 -31 -20 -34 -9 -4 -30 -17
-45 -30 -42 -34 -61 -31 -53 10 19 101 229 178 451 164 68 -4 116 -15 195 -42
151 -53 265 -108 285 -139 10 -14 26 -26 36 -26 25 0 24 8 -3 37 -19 20 -20
27 -10 43 17 28 16 30 -19 30 -18 0 -66 19 -112 44 -100 54 -275 116 -327 116
-22 0 -51 -5 -65 -12 -21 -9 -31 -9 -46 0 -26 17 -89 14 -189 -8z m536 -355
c-12 -49 -124 -58 -180 -14 -36 28 -33 43 7 35 94 -20 105 -19 139 9 29 24 33
26 36 11 2 -10 1 -28 -2 -41z"/>
<path d="M6117 7854 c-4 -4 -7 -11 -7 -16 0 -13 50 -6 53 7 2 12 -36 19 -46 9z"/>
<path d="M722 7785 c-51 -24 -62 -38 -78 -99 -9 -36 19 -39 100 -11 63 22 90
25 204 25 73 0 132 4 132 9 0 11 -43 28 -90 35 -19 3 -64 19 -98 36 -77 36
-101 37 -170 5z"/>
<path d="M6110 7779 c-74 -20 -90 -30 -90 -56 0 -34 60 -93 95 -93 104 0 175
-126 140 -248 -9 -31 -41 -104 -71 -164 -30 -59 -51 -108 -47 -107 13 0 166
187 186 226 26 50 47 156 47 242 l0 74 -43 42 c-45 43 -139 96 -166 94 -9 0
-32 -5 -51 -10z m25 -109 c8 -13 -1 -13 -26 0 -10 6 -19 15 -19 21 0 11 35 -5
45 -21z"/>
<path d="M5107 7683 c-10 -10 -8 -96 3 -113 14 -23 25 -2 25 50 0 47 -14 78
-28 63z"/>
<path d="M3612 7638 c7 -21 36 -34 49 -21 6 6 8 16 5 22 -10 15 -59 14 -54 -1z"/>
<path d="M3616 7563 c-8 -9 14 -33 30 -33 8 0 14 4 14 10 0 12 -35 31 -44 23z"/>
<path d="M5850 7475 c0 -14 30 -69 70 -128 39 -57 70 -110 70 -119 0 -8 -23
-49 -52 -92 -28 -42 -48 -79 -44 -83 11 -11 123 114 147 164 40 83 10 187 -58
205 -17 4 -42 24 -57 43 -33 43 -76 49 -76 10z"/>
<path d="M3540 7460 c0 -13 48 -36 56 -27 4 4 1 13 -6 22 -14 17 -50 20 -50 5z"/>
<path d="M733 7395 c-8 -23 3 -105 16 -118 8 -8 11 8 11 61 0 68 -12 94 -27
57z"/>
<path d="M6571 7333 c-109 -221 -214 -469 -208 -487 8 -19 241 506 235 526 -2
5 -14 -12 -27 -39z"/>
<path d="M1504 7323 c-9 -27 -47 -115 -85 -198 -37 -82 -82 -191 -98 -242 -34
-104 -84 -209 -113 -236 -20 -19 -22 -73 -3 -71 14 1 157 291 190 388 16 44
48 112 72 151 24 38 43 75 43 82 0 7 11 38 25 69 31 69 33 104 6 104 -14 0
-24 -13 -37 -47z"/>
<path d="M2570 7345 c0 -5 62 -21 113 -28 52 -8 47 8 -7 22 -45 11 -106 15
-106 6z"/>
<path d="M1429 7287 c-43 -54 -91 -128 -86 -134 6 -5 82 89 110 136 23 40 9
39 -24 -2z"/>
<path d="M4975 7310 c-3 -5 -8 -43 -11 -82 -5 -68 -4 -72 10 -54 11 13 16 41
16 83 0 62 -3 73 -15 53z"/>
<path d="M2650 7262 c0 -5 7 -13 16 -16 8 -3 13 -10 10 -15 -3 -5 19 -12 50
-16 31 -4 81 -15 112 -25 100 -32 162 -49 162 -44 0 8 -97 49 -195 82 -111 37
-155 47 -155 34z"/>
<path d="M5587 7263 c-13 -12 -7 -33 8 -33 8 0 15 9 15 20 0 20 -11 26 -23 13z"/>
<path d="M5351 7078 c0 -24 4 -52 8 -63 7 -18 8 -17 14 7 8 29 -1 86 -14 94
-5 3 -9 -14 -8 -38z"/>
<path d="M4930 7067 c0 -23 4 -36 10 -32 13 8 13 35 0 55 -7 11 -10 5 -10 -23z"/>
<path d="M723 7010 c-16 -60 -24 -152 -13 -145 11 7 33 136 28 167 -2 17 -6
12 -15 -22z"/>
<path d="M5081 7021 c-1 -27 2 -32 11 -23 8 8 8 17 0 34 -10 22 -11 21 -11
-11z"/>
<path d="M5063 6840 c0 -25 2 -35 4 -22 2 12 2 32 0 45 -2 12 -4 2 -4 -23z"/>
<path d="M4893 6824 c-8 -22 3 -144 15 -156 13 -13 32 50 32 108 0 53 -32 87
-47 48z"/>
<path d="M5042 6710 c0 -19 2 -27 5 -17 2 9 2 25 0 35 -3 9 -5 1 -5 -18z"/>
<path d="M694 6548 c7 -52 38 -194 56 -253 19 -62 -1 90 -26 198 -28 115 -41
139 -30 55z"/>
<path d="M4861 6558 c-5 -13 -14 -66 -20 -118 -7 -52 -13 -105 -15 -117 -5
-37 12 -26 24 15 9 31 40 212 40 235 0 16 -21 5 -29 -15z"/>
<path d="M1156 6498 c-7 -18 -16 -50 -19 -71 -6 -36 -5 -38 16 -31 31 9 37 22
37 76 0 58 -16 70 -34 26z"/>
<path d="M5944 6495 c-18 -15 -18 -15 10 -13 16 2 31 9 34 16 5 17 -20 15 -44
-3z"/>
<path d="M4977 6473 c-16 -28 -60 -277 -81 -459 -15 -128 -26 -175 -48 -201
-22 -27 -25 0 -8 79 11 45 17 84 16 86 -10 9 -47 -63 -56 -108 -5 -28 -24 -85
-41 -128 -41 -102 -50 -132 -38 -132 5 0 12 7 15 15 4 8 10 15 15 15 5 0 9 -7
9 -15 0 -31 19 -13 35 33 30 83 34 92 48 92 8 0 18 -10 24 -22 9 -20 11 -16
16 28 4 27 14 59 22 71 10 15 18 66 24 160 6 76 19 192 30 258 32 196 38 261
18 228z"/>
<path d="M2215 6383 c9 -36 52 -93 71 -93 25 0 16 48 -17 85 -39 44 -64 47
-54 8z"/>
<path d="M6536 6261 c-21 -74 -33 -185 -17 -161 12 20 43 185 39 208 -2 9 -12
-12 -22 -47z"/>
<path d="M1778 6225 c-14 -8 -73 -21 -129 -29 -107 -15 -146 -35 -133 -69 5
-15 28 -16 207 -14 111 1 237 -2 280 -7 66 -8 77 -7 77 6 0 22 -36 43 -152 88
-114 45 -113 45 -150 25z"/>
<path d="M2243 6198 c0 -13 -4 -43 -8 -68 -7 -40 -7 -44 7 -32 18 14 42 98 33
113 -11 18 -33 9 -32 -13z"/>
<path d="M770 6094 c0 -28 51 -268 61 -284 23 -39 -3 175 -32 268 -11 34 -29
44 -29 16z"/>
<path d="M1716 6061 c27 -27 284 -55 284 -32 0 14 -26 20 -121 31 -108 13
-176 13 -163 1z"/>
<path d="M4983 5865 c0 -27 2 -38 4 -22 2 15 2 37 0 50 -2 12 -4 0 -4 -28z"/>
<path d="M4640 5756 c-12 -34 -10 -58 6 -63 15 -5 26 54 15 75 -8 14 -11 13
-21 -12z"/>
<path d="M1784 5756 c-7 -17 20 -66 36 -66 18 0 11 46 -10 65 -18 16 -20 16
-26 1z"/>
<path d="M4460 5706 c0 -10 9 -16 21 -16 24 0 21 23 -4 28 -10 2 -17 -3 -17
-12z"/>
<path d="M4499 5643 c-35 -31 -69 -80 -69 -98 0 -19 25 2 51 45 17 27 42 58
57 69 15 11 21 21 15 21 -7 0 -31 -17 -54 -37z"/>
<path d="M4355 5656 c-10 -7 -16 -18 -14 -25 3 -9 11 -7 28 7 27 21 14 39 -14
18z"/>
<path d="M4852 5625 c0 -16 2 -22 5 -12 2 9 2 23 0 30 -3 6 -5 -1 -5 -18z"/>
<path d="M4579 5487 c-19 -26 -39 -82 -39 -109 0 -11 -9 -31 -20 -45 -11 -14
-20 -36 -20 -49 0 -21 -107 -150 -117 -141 -2 3 12 61 32 130 36 131 41 157
26 157 -11 0 -27 -42 -40 -108 -13 -62 -30 -97 -77 -159 -37 -48 -46 -77 -15
-49 22 20 53 10 71 -25 14 -26 -14 -78 -53 -97 -33 -16 -47 -9 -47 23 l0 24
-77 -35 c-179 -81 -167 -70 -179 -149 -7 -38 -10 -72 -9 -73 2 -2 13 16 25 40
32 63 55 78 122 78 54 0 59 2 73 30 18 34 41 39 50 11 4 -13 12 -18 21 -14 9
3 61 62 117 132 56 69 127 153 157 186 75 81 120 149 127 190 9 57 -23 46 -50
-18 -26 -57 -90 -132 -106 -123 -10 7 -3 39 31 144 22 69 21 81 -3 49z m-359
-547 c0 -11 -7 -20 -15 -20 -15 0 -21 21 -8 33 12 13 23 7 23 -13z"/>
<path d="M3950 5441 c0 -5 6 -14 14 -20 16 -13 32 2 21 19 -8 12 -35 13 -35 1z"/>
<path d="M4244 5403 c-16 -77 -86 -163 -131 -163 -38 0 -63 -34 -63 -85 0 -51
-18 -103 -43 -124 -21 -17 -22 -31 -2 -31 27 0 61 44 68 85 7 45 54 108 97
130 25 13 29 13 41 -1 10 -12 10 -28 1 -78 -14 -77 -15 -106 -3 -106 6 0 13
21 16 48 4 26 17 112 30 191 14 79 22 148 19 153 -10 16 -24 8 -30 -19z"/>
<path d="M4840 5397 c0 -28 17 -47 42 -47 25 0 23 22 -5 48 -30 28 -37 28 -37
-1z"/>
<path d="M4731 5293 c-97 -132 -124 -204 -69 -188 49 15 105 95 67 95 -6 0 -9
10 -7 23 2 18 10 23 41 25 41 4 47 15 17 34 -23 15 -25 29 -8 46 9 9 16 8 31
-6 18 -16 19 -16 16 8 -7 47 -35 35 -88 -37z"/>
<path d="M3775 5310 c-11 -18 13 -36 31 -25 9 6 16 15 17 20 3 14 -40 18 -48
5z"/>
<path d="M2600 5235 c0 -14 5 -25 10 -25 6 0 10 11 10 25 0 14 -4 25 -10 25
-5 0 -10 -11 -10 -25z"/>
<path d="M3904 5235 c-32 -49 -66 -160 -71 -235 -3 -41 -11 -80 -18 -85 -7 -6
-16 -21 -20 -34 -4 -13 -26 -44 -49 -69 -41 -45 -41 -45 -9 -29 17 9 40 27 50
39 10 13 30 29 46 35 38 17 64 74 49 108 -19 42 8 219 43 271 8 13 11 24 5 24
-5 0 -17 -11 -26 -25z"/>
<path d="M2646 5205 c-13 -10 -43 -15 -81 -15 -34 0 -66 -5 -73 -12 -17 -17
-15 -53 3 -68 8 -7 17 -27 21 -46 7 -40 19 -42 51 -12 16 15 40 23 76 26 52 4
55 3 75 -30 19 -31 72 -78 88 -78 8 0 -3 100 -15 132 -10 25 -8 27 -28 -32 -3
-8 -11 6 -17 32 -12 44 -58 118 -74 118 -4 0 -16 -7 -26 -15z"/>
<path d="M1188 5180 c-21 -11 -62 -23 -92 -26 -29 -4 -60 -10 -67 -15 -24 -14
3 -41 55 -56 61 -18 95 -40 106 -68 6 -15 23 -26 55 -34 25 -6 43 -16 40 -21
-8 -13 -72 -13 -80 0 -12 20 -45 10 -59 -19 -12 -23 -13 -32 -3 -45 12 -16 23
-14 148 28 74 25 149 46 166 46 46 0 63 9 63 35 0 31 20 43 32 20 9 -15 22
-16 122 -10 131 8 131 1 1 -45 -49 -17 -94 -36 -100 -42 -7 -7 -4 -9 10 -5 11
3 61 17 110 31 105 30 210 45 314 46 50 0 80 5 90 14 9 8 88 26 176 41 87 14
161 28 164 30 2 3 -13 12 -35 21 -34 14 -51 15 -134 5 -103 -13 -236 -5 -383
24 -102 19 -218 19 -304 -1 -86 -20 -220 -15 -255 9 -81 59 -93 62 -140 37z
m849 -102 c-2 -7 -1 -20 4 -29 7 -14 2 -16 -34 -15 -23 0 -59 -3 -80 -8 -35
-8 -39 -7 -35 10 3 18 15 24 93 42 57 13 57 13 52 0z"/>
<path d="M3732 5082 c-16 -70 -15 -92 3 -92 8 0 24 10 35 22 18 20 19 24 6 34
-9 6 -19 29 -24 50 l-9 39 -11 -53z"/>
<path d="M4550 5019 c-7 -11 -9 -24 -5 -27 7 -7 35 25 35 40 0 16 -19 8 -30
-13z"/>
<path d="M6027 5003 c-4 -3 -7 -20 -7 -37 1 -33 11 -24 24 22 7 21 -3 30 -17
15z"/>
<path d="M3623 4960 c-22 -10 -44 -23 -47 -29 -4 -6 -16 -11 -26 -11 -10 0
-23 -8 -29 -17 -9 -17 -12 -16 -38 10 -16 15 -32 27 -35 27 -3 0 -6 -33 -5
-72 0 -40 -3 -106 -8 -145 -6 -53 -5 -73 4 -73 15 0 30 40 43 114 14 75 41
106 96 106 42 0 58 13 86 67 20 41 10 46 -41 23z"/>
<path d="M4563 4927 c-29 -32 -57 -77 -51 -83 3 -3 22 18 43 46 39 53 44 77 8
37z"/>
<path d="M1848 4863 c12 -2 30 -2 40 0 9 3 -1 5 -23 4 -22 0 -30 -2 -17 -4z"/>
<path d="M3880 4851 c-13 -25 -13 -61 0 -61 13 0 30 34 30 59 0 26 -16 27 -30
2z"/>
<path d="M2858 4801 c-40 -44 -46 -71 -23 -111 15 -28 22 -19 27 35 3 26 6 21
27 -38 23 -68 76 -158 98 -164 6 -2 -9 46 -34 108 -25 61 -48 134 -52 162 l-6
50 -37 -42z"/>
<path d="M3637 4834 c-4 -4 -7 -27 -7 -51 0 -37 -3 -43 -21 -43 -16 0 -19 -4
-14 -20 5 -17 -5 -72 -22 -115 -3 -10 5 -18 21 -25 24 -9 26 -13 20 -46 -5
-29 -4 -36 7 -32 17 6 99 156 99 181 0 10 -10 31 -21 47 -12 16 -25 46 -28 66
-6 36 -20 52 -34 38z m63 -136 c0 -14 -30 -48 -42 -48 -13 0 -9 24 8 48 15 22
34 22 34 0z"/>
<path d="M3560 4800 c-16 -38 -19 -98 -5 -102 6 -2 13 15 16 37 3 22 9 52 14
68 10 37 -9 35 -25 -3z"/>
<path d="M3330 4801 c-12 -24 -13 -71 0 -91 15 -24 30 0 37 58 5 44 3 52 -10
52 -9 0 -21 -9 -27 -19z"/>
<path d="M3090 4530 c20 -39 52 -82 57 -77 7 8 -23 60 -47 82 l-23 20 13 -25z"/>
<path d="M3200 4463 c-12 -38 -24 -92 -27 -120 -5 -44 -3 -54 12 -59 23 -9 35
12 35 62 0 23 7 61 15 84 19 55 20 100 0 100 -9 0 -22 -25 -35 -67z"/>
<path d="M3066 4418 c-18 -25 -21 -53 -5 -43 12 8 32 56 25 62 -2 2 -11 -6
-20 -19z"/>
<path d="M1763 4343 c-7 -2 -13 -9 -13 -14 0 -15 53 -6 58 9 4 12 -21 15 -45
5z"/>
<path d="M2194 4302 c-79 -44 -124 -82 -145 -125 -11 -21 -18 -41 -15 -44 3
-3 24 7 47 23 29 20 44 25 46 17 3 -7 17 -13 33 -13 36 0 44 -22 19 -53 -10
-14 -19 -30 -19 -35 0 -16 30 -23 51 -11 17 9 18 12 4 25 -11 12 -12 20 -5 35
14 26 56 52 70 44 15 -9 60 3 60 16 0 5 -16 17 -35 25 -20 8 -38 21 -42 30 -3
8 -13 14 -22 12 -9 -1 -22 1 -29 6 -11 6 -6 16 19 42 40 41 30 43 -37 6z"/>
<path d="M2335 4307 c-20 -31 -17 -66 8 -81 25 -15 39 9 31 54 -8 49 -19 56
-39 27z"/>
<path d="M4380 3675 c-16 -19 -3 -40 16 -24 15 13 19 39 5 39 -5 0 -14 -7 -21
-15z"/>
<path d="M3982 3637 c-33 -34 -33 -47 1 -47 20 0 20 0 1 -21 -19 -22 -19 -22
6 -14 40 12 56 31 40 50 -11 13 -10 18 4 33 40 45 -9 44 -52 -1z"/>
<path d="M4154 3646 c-8 -32 -2 -58 14 -64 8 -2 12 10 12 42 0 49 -16 62 -26
22z"/>
<path d="M3824 3571 c-42 -31 -123 -114 -88 -90 12 8 45 33 74 57 28 23 56 42
61 42 5 0 9 5 9 10 0 17 -15 12 -56 -19z"/>
<path d="M3863 3489 c-24 -38 -30 -69 -13 -69 15 0 42 59 38 83 -3 20 -5 18
-25 -14z"/>
<path d="M4218 3433 c-29 -34 -30 -48 -2 -21 15 15 26 30 23 33 -3 3 -13 -3
-21 -12z"/>
<path d="M4000 3358 c-18 -29 -41 -63 -53 -75 -31 -35 -11 -40 24 -7 32 29 89
111 89 126 0 4 -6 8 -14 8 -8 0 -29 -24 -46 -52z"/>
<path d="M3878 3209 c-22 -12 -24 -39 -4 -39 16 0 46 26 46 41 0 12 -20 11
-42 -2z"/>
<path d="M3594 3043 c-49 -54 -75 -88 -59 -76 49 35 175 173 158 173 -6 0 -50
-44 -99 -97z"/>
<path d="M2943 3014 c-3 -8 -1 -20 6 -27 8 -8 11 -4 11 16 0 30 -7 35 -17 11z"/>
<path d="M3820 2096 c0 -10 9 -16 21 -16 24 0 21 23 -4 28 -10 2 -17 -3 -17
-12z"/>
<path d="M3102 1948 c-14 -14 -16 -38 -3 -38 10 0 26 39 19 46 -2 2 -10 -2
-16 -8z"/>
<path d="M3097 1860 c-14 -44 -21 -236 -9 -244 18 -11 23 30 20 154 -2 76 -6
106 -11 90z"/>
<path d="M780 1460 c-8 -5 -12 -12 -8 -15 9 -9 48 4 48 16 0 12 -21 11 -40 -1z"/>
<path d="M638 1403 c6 -2 18 -2 25 0 6 3 1 5 -13 5 -14 0 -19 -2 -12 -5z"/>
<path d="M678 1378 c-16 -5 -28 -14 -28 -19 0 -12 49 0 75 17 19 14 19 14 0
13 -11 0 -32 -5 -47 -11z"/>
<path d="M3016 1262 c-3 -5 -12 -148 -20 -318 -9 -170 -17 -345 -20 -389 l-4
-80 16 34 c20 40 36 42 40 4 2 -15 11 -36 19 -45 24 -27 29 -103 8 -134 -15
-24 -17 -43 -12 -138 8 -159 5 -153 91 -161 40 -4 222 -2 406 4 440 15 593 32
607 66 3 8 -9 36 -26 62 -17 25 -31 53 -31 61 0 25 -63 134 -87 149 -12 8 -32
40 -43 71 -27 73 -66 113 -165 168 -105 60 -171 111 -185 144 -11 26 -46 50
-73 50 -7 0 -34 11 -62 25 -36 18 -67 24 -111 25 -164 1 -239 69 -259 236 -4
33 -15 77 -25 99 -19 44 -55 82 -64 67z m573 -781 c7 -5 11 -14 7 -19 -9 -15
-36 -4 -36 14 0 16 9 18 29 5z m181 -202 c0 -18 -2 -19 -15 -9 -8 7 -15 16
-15 21 0 5 7 9 15 9 9 0 15 -9 15 -21z m-94 0 c13 -21 -47 -39 -171 -53 l-50
-5 30 16 c38 21 133 52 162 52 12 1 25 -4 29 -10z m310 -93 c25 -19 14 -28
-31 -28 -20 0 -39 3 -43 7 -8 8 26 35 43 35 6 0 20 -6 31 -14z"/>
<path d="M683 1233 c-23 -9 -14 -25 10 -18 31 10 45 25 22 24 -11 0 -26 -3
-32 -6z"/>
<path d="M2796 1218 c-8 -31 -8 -93 1 -101 3 -4 12 -2 19 4 9 7 14 3 19 -20 7
-34 29 -56 46 -46 12 8 39 67 39 88 0 13 -95 97 -110 97 -4 0 -10 -10 -14 -22z"/>
<path d="M820 1206 c0 -18 30 -30 43 -17 5 5 6 14 3 20 -10 16 -46 13 -46 -3z"/>
<path d="M2669 1163 c-17 -19 -19 -213 -4 -308 9 -55 10 -47 16 105 4 91 10
177 14 193 8 31 -5 36 -26 10z"/>
<path d="M607 1144 c-16 -9 -26 -18 -23 -21 7 -8 66 17 66 28 0 12 -10 11 -43
-7z"/>
<path d="M725 1062 c-88 -37 -169 -73 -180 -80 -19 -11 -19 -11 3 -12 13 0 67
18 119 40 106 44 118 47 109 25 -3 -9 0 -15 8 -15 15 0 46 32 46 48 0 6 15 22
33 36 17 14 30 26 27 26 -3 0 -77 -31 -165 -68z"/>
<path d="M2840 1010 c0 -15 5 -20 18 -18 9 2 17 10 17 18 0 8 -8 16 -17 18
-13 2 -18 -3 -18 -18z"/>
<path d="M2772 988 c3 -7 13 -15 22 -16 12 -3 17 1 14 10 -3 7 -13 15 -22 16
-12 3 -17 -1 -14 -10z"/>
<path d="M737 954 c-15 -8 -27 -19 -27 -25 0 -13 40 -2 58 16 21 19 1 25 -31
9z"/>
<path d="M2866 850 c10 -126 25 -254 29 -259 16 -16 16 26 0 147 -20 149 -37
217 -29 112z"/>
<path d="M2785 786 c3 -60 5 -133 5 -163 0 -33 4 -53 12 -53 13 0 4 215 -12
285 -7 29 -8 10 -5 -69z"/>
<path d="M553 803 c9 -2 23 -2 30 0 6 3 -1 5 -18 5 -16 0 -22 -2 -12 -5z"/>
<path d="M535 740 c-8 -13 3 -30 21 -30 18 0 18 14 0 29 -10 8 -16 9 -21 1z"/>
<path d="M810 694 c-101 -43 -231 -86 -237 -80 -3 3 18 16 46 30 28 15 51 28
51 31 0 5 -134 -32 -176 -50 -19 -8 -34 -17 -34 -21 0 -3 39 -4 88 -2 64 4
113 14 187 40 113 39 165 64 165 78 0 13 8 15 -90 -26z"/>
<path d="M428 693 c-33 -9 -18 -24 20 -21 20 2 37 8 37 13 0 11 -31 16 -57 8z"/>
<path d="M877 584 c-51 -28 -221 -93 -282 -108 -33 -9 -91 -20 -129 -25 -84
-12 -111 -31 -44 -31 89 0 406 96 482 146 48 31 25 46 -27 18z"/>
<path d="M458 563 c-16 -2 -28 -9 -28 -15 0 -14 182 -3 208 11 17 11 -120 13
-180 4z"/>
<path d="M2692 545 c0 -16 2 -22 5 -12 2 9 2 23 0 30 -3 6 -5 -1 -5 -18z"/>
<path d="M2900 495 c0 -14 5 -25 10 -25 6 0 10 11 10 25 0 14 -4 25 -10 25 -5
0 -10 -11 -10 -25z"/>
<path d="M865 498 c-166 -58 -310 -116 -303 -123 12 -12 348 113 348 129 0 8
-9 7 -45 -6z"/>
<path d="M2692 430 c0 -19 2 -27 5 -17 2 9 2 25 0 35 -3 9 -5 1 -5 -18z"/>
<path d="M695 361 c-105 -27 -203 -52 -220 -56 l-30 -7 25 -13 c32 -18 76 -19
83 -2 2 7 20 14 38 15 34 3 262 75 289 92 36 22 -9 15 -185 -29z"/>
<path d="M476 389 c5 -9 -1 -10 -20 -5 -28 7 -34 -2 -14 -22 16 -16 39 -15 63
4 17 13 18 16 5 24 -21 13 -43 12 -34 -1z"/>
<path d="M2633 355 c0 -22 2 -30 4 -17 2 12 2 30 0 40 -3 9 -5 -1 -4 -23z"/>
<path d="M2692 260 c0 -19 2 -27 5 -17 2 9 2 25 0 35 -3 9 -5 1 -5 -18z"/>
<path d="M705 199 c-54 -13 -95 -30 -95 -40 0 -5 5 -9 11 -9 5 0 7 -4 4 -10
-3 -5 -17 -10 -31 -10 -28 0 -89 -28 -80 -37 10 -10 172 46 190 66 10 11 31
23 47 26 31 7 40 26 12 24 -10 -1 -36 -5 -58 -10z"/>
<path d="M2640 171 c0 -29 18 -71 30 -71 13 0 13 33 -2 65 -13 30 -28 33 -28
6z"/>
<path d="M700 55 c-41 -13 -84 -31 -95 -40 -19 -15 -18 -16 15 -9 48 9 132 41
156 59 26 20 11 18 -76 -10z"/>
</g>
</svg>
